{
  "title" : "",
  "description" : "",
  "author" : "",
  "width" : 1236.0,
  "height" : 668.0,
  "version" : "0.5",
  "editRate" : 30,
  "authoringClientName" :  {
    "name" : "Camtasia Studio",
    "platform" : "Windows",
    "version" : "9.0"
  },
  "sourceBin" : [
    {
      "id" : 1,
      "src" : "C:\\Users\\Tathagata\\Documents\\Camtasia Studio\\Rec 12-20-20 2.trec",
      "rect" : [0, 0, 1116, 604],
      "lastMod" : "20201220T111214",
      "sourceTracks" : [
        {
          "range" : [0, 135],
          "type" : 0,
          "editRate" : 15,
          "trackRect" : [0, 0, 1116, 604],
          "sampleRate" : 14,
          "bitDepth" : 0,
          "numChannels" : 0,
          "metaData" : "Rec 12-20-20 2.trec;"
        }
      ]
    },
    {
      "id" : 2,
      "src" : "C:\\Users\\Tathagata\\Documents\\Camtasia Studio\\Rec 12-20-20 3.trec",
      "rect" : [0, 0, 1244, 672],
      "lastMod" : "20201220T111428",
      "sourceTracks" : [
        {
          "range" : [0, 114],
          "type" : 0,
          "editRate" : 15,
          "trackRect" : [0, 0, 1244, 672],
          "sampleRate" : 14,
          "bitDepth" : 0,
          "numChannels" : 0,
          "metaData" : "Rec 12-20-20 3.trec;"
        }
      ]
    },
    {
      "id" : 3,
      "src" : "C:\\Users\\Tathagata\\Documents\\Camtasia Studio\\Rec 12-20-20 4.trec",
      "rect" : [0, 0, 1256, 700],
      "lastMod" : "20201220T112139",
      "sourceTracks" : [
        {
          "range" : [0, 127],
          "type" : 0,
          "editRate" : 15,
          "trackRect" : [0, 0, 1256, 700],
          "sampleRate" : 14,
          "bitDepth" : 0,
          "numChannels" : 0,
          "metaData" : "Rec 12-20-20 4.trec;"
        }
      ]
    },
    {
      "id" : 4,
      "src" : "C:\\Users\\Tathagata\\Documents\\Camtasia Studio\\Rec 12-20-20 5.trec",
      "rect" : [0, 0, 1256, 700],
      "lastMod" : "20201220T112238",
      "sourceTracks" : [
        {
          "range" : [0, 124],
          "type" : 0,
          "editRate" : 15,
          "trackRect" : [0, 0, 1256, 700],
          "sampleRate" : 14,
          "bitDepth" : 0,
          "numChannels" : 0,
          "metaData" : "Rec 12-20-20 5.trec;"
        }
      ]
    },
    {
      "id" : 5,
      "src" : "C:\\Users\\Tathagata\\Documents\\Camtasia Studio\\Rec 12-20-20 6.trec",
      "rect" : [0, 0, 492, 608],
      "lastMod" : "20201220T112712",
      "sourceTracks" : [
        {
          "range" : [0, 102],
          "type" : 0,
          "editRate" : 15,
          "trackRect" : [0, 0, 492, 608],
          "sampleRate" : 15,
          "bitDepth" : 0,
          "numChannels" : 0,
          "metaData" : "Rec 12-20-20 6.trec;"
        }
      ]
    },
    {
      "id" : 6,
      "src" : "C:\\Users\\Tathagata\\Documents\\Camtasia Studio\\Rec 12-20-20 7.trec",
      "rect" : [0, 0, 772, 432],
      "lastMod" : "20201220T113439",
      "sourceTracks" : [
        {
          "range" : [0, 114],
          "type" : 0,
          "editRate" : 15,
          "trackRect" : [0, 0, 772, 432],
          "sampleRate" : 15,
          "bitDepth" : 0,
          "numChannels" : 0,
          "metaData" : "Rec 12-20-20 7.trec;"
        }
      ]
    },
    {
      "id" : 7,
      "src" : "C:\\Users\\Tathagata\\Documents\\Camtasia Studio\\Rec 12-20-20 8.trec",
      "rect" : [0, 0, 456, 548],
      "lastMod" : "20201220T113815",
      "sourceTracks" : [
        {
          "range" : [0, 105],
          "type" : 0,
          "editRate" : 15,
          "trackRect" : [0, 0, 456, 548],
          "sampleRate" : 15,
          "bitDepth" : 0,
          "numChannels" : 0,
          "metaData" : "Rec 12-20-20 8.trec;"
        }
      ]
    },
    {
      "id" : 8,
      "src" : "C:\\Users\\Tathagata\\Documents\\Camtasia Studio\\Rec 12-20-20 9.trec",
      "rect" : [0, 0, 1256, 704],
      "lastMod" : "20201220T115214",
      "sourceTracks" : [
        {
          "range" : [0, 320],
          "type" : 0,
          "editRate" : 15,
          "trackRect" : [0, 0, 1256, 704],
          "sampleRate" : 14,
          "bitDepth" : 0,
          "numChannels" : 0,
          "metaData" : "Rec 12-20-20 9.trec;"
        }
      ]
    },
    {
      "id" : 9,
      "src" : "C:\\Users\\Tathagata\\Documents\\Camtasia Studio\\Rec 12-20-20 11.trec",
      "rect" : [0, 0, 1252, 700],
      "lastMod" : "20201220T115953",
      "sourceTracks" : [
        {
          "range" : [0, 164],
          "type" : 0,
          "editRate" : 15,
          "trackRect" : [0, 0, 1252, 700],
          "sampleRate" : 14,
          "bitDepth" : 0,
          "numChannels" : 0,
          "metaData" : "Rec 12-20-20 11.trec;"
        }
      ]
    },
    {
      "id" : 10,
      "src" : "C:\\Users\\Tathagata\\Documents\\Camtasia Studio\\Rec 12-20-20 12.trec",
      "rect" : [0, 0, 1252, 700],
      "lastMod" : "20201220T120843",
      "sourceTracks" : [
        {
          "range" : [0, 136],
          "type" : 0,
          "editRate" : 15,
          "trackRect" : [0, 0, 1252, 700],
          "sampleRate" : 14,
          "bitDepth" : 0,
          "numChannels" : 0,
          "metaData" : "Rec 12-20-20 12.trec;"
        }
      ]
    },
    {
      "id" : 11,
      "src" : "C:\\Users\\Tathagata\\Documents\\Camtasia Studio\\Rec 12-20-20 13.trec",
      "rect" : [0, 0, 1252, 700],
      "lastMod" : "20201220T122201",
      "sourceTracks" : [
        {
          "range" : [0, 158],
          "type" : 0,
          "editRate" : 15,
          "trackRect" : [0, 0, 1252, 700],
          "sampleRate" : 14,
          "bitDepth" : 0,
          "numChannels" : 0,
          "metaData" : "Rec 12-20-20 13.trec;"
        }
      ]
    },
    {
      "id" : 12,
      "src" : "C:\\Users\\Tathagata\\Documents\\Camtasia Studio\\Rec 12-20-20 14.trec",
      "rect" : [0, 0, 1252, 700],
      "lastMod" : "20201220T124037",
      "sourceTracks" : [
        {
          "range" : [0, 75],
          "type" : 0,
          "editRate" : 15,
          "trackRect" : [0, 0, 1252, 700],
          "sampleRate" : 14,
          "bitDepth" : 0,
          "numChannels" : 0,
          "metaData" : "Rec 12-20-20 14.trec;"
        }
      ]
    },
    {
      "id" : 13,
      "src" : "C:\\Users\\Tathagata\\Documents\\Camtasia Studio\\Rec 12-20-20 15.trec",
      "rect" : [0, 0, 1252, 700],
      "lastMod" : "20201220T124056",
      "sourceTracks" : [
        {
          "range" : [0, 67],
          "type" : 0,
          "editRate" : 15,
          "trackRect" : [0, 0, 1252, 700],
          "sampleRate" : 14,
          "bitDepth" : 0,
          "numChannels" : 0,
          "metaData" : "Rec 12-20-20 15.trec;"
        }
      ]
    },
    {
      "id" : 14,
      "src" : "C:\\Users\\Tathagata\\Documents\\Camtasia Studio\\Rec 12-20-20 16.trec",
      "rect" : [0, 0, 960, 520],
      "lastMod" : "20201220T124158",
      "sourceTracks" : [
        {
          "range" : [0, 51],
          "type" : 0,
          "editRate" : 15,
          "trackRect" : [0, 0, 960, 520],
          "sampleRate" : 15,
          "bitDepth" : 0,
          "numChannels" : 0,
          "metaData" : "Rec 12-20-20 16.trec;"
        }
      ]
    },
    {
      "id" : 15,
      "src" : "C:\\Users\\Tathagata\\Documents\\Camtasia Studio\\Rec 12-20-20 17.trec",
      "rect" : [0, 0, 960, 520],
      "lastMod" : "20201220T124219",
      "sourceTracks" : [
        {
          "range" : [0, 55],
          "type" : 0,
          "editRate" : 15,
          "trackRect" : [0, 0, 960, 520],
          "sampleRate" : 14,
          "bitDepth" : 0,
          "numChannels" : 0,
          "metaData" : "Rec 12-20-20 17.trec;"
        }
      ]
    },
    {
      "id" : 16,
      "src" : "C:\\Users\\Tathagata\\Documents\\Camtasia Studio\\Rec 12-20-20 18.trec",
      "rect" : [0, 0, 960, 520],
      "lastMod" : "20201220T124236",
      "sourceTracks" : [
        {
          "range" : [0, 56],
          "type" : 0,
          "editRate" : 15,
          "trackRect" : [0, 0, 960, 520],
          "sampleRate" : 15,
          "bitDepth" : 0,
          "numChannels" : 0,
          "metaData" : "Rec 12-20-20 18.trec;"
        }
      ]
    },
    {
      "id" : 17,
      "src" : "C:\\Users\\Tathagata\\Documents\\Camtasia Studio\\Rec 12-20-20 19.trec",
      "rect" : [0, 0, 960, 520],
      "lastMod" : "20201220T124254",
      "sourceTracks" : [
        {
          "range" : [0, 57],
          "type" : 0,
          "editRate" : 15,
          "trackRect" : [0, 0, 960, 520],
          "sampleRate" : 15,
          "bitDepth" : 0,
          "numChannels" : 0,
          "metaData" : "Rec 12-20-20 19.trec;"
        }
      ]
    },
    {
      "id" : 18,
      "src" : "C:\\Users\\Tathagata\\Documents\\Camtasia Studio\\Rec 12-20-20 20.trec",
      "rect" : [0, 0, 960, 520],
      "lastMod" : "20201220T124314",
      "sourceTracks" : [
        {
          "range" : [0, 53],
          "type" : 0,
          "editRate" : 15,
          "trackRect" : [0, 0, 960, 520],
          "sampleRate" : 15,
          "bitDepth" : 0,
          "numChannels" : 0,
          "metaData" : "Rec 12-20-20 20.trec;"
        }
      ]
    },
    {
      "id" : 19,
      "src" : "C:\\Users\\Tathagata\\Documents\\Camtasia Studio\\Rec 12-20-20 21.trec",
      "rect" : [0, 0, 960, 520],
      "lastMod" : "20201220T124336",
      "sourceTracks" : [
        {
          "range" : [0, 59],
          "type" : 0,
          "editRate" : 15,
          "trackRect" : [0, 0, 960, 520],
          "sampleRate" : 15,
          "bitDepth" : 0,
          "numChannels" : 0,
          "metaData" : "Rec 12-20-20 21.trec;"
        }
      ]
    },
    {
      "id" : 20,
      "src" : "C:\\Users\\Tathagata\\Documents\\Camtasia Studio\\Rec 12-20-20 22.trec",
      "rect" : [0, 0, 960, 520],
      "lastMod" : "20201220T124357",
      "sourceTracks" : [
        {
          "range" : [0, 56],
          "type" : 0,
          "editRate" : 15,
          "trackRect" : [0, 0, 960, 520],
          "sampleRate" : 14,
          "bitDepth" : 0,
          "numChannels" : 0,
          "metaData" : "Rec 12-20-20 22.trec;"
        }
      ]
    },
    {
      "id" : 21,
      "src" : "C:\\Users\\Tathagata\\Documents\\Camtasia Studio\\Rec 12-20-20 23.trec",
      "rect" : [0, 0, 960, 520],
      "lastMod" : "20201220T124522",
      "sourceTracks" : [
        {
          "range" : [0, 58],
          "type" : 0,
          "editRate" : 15,
          "trackRect" : [0, 0, 960, 520],
          "sampleRate" : 15,
          "bitDepth" : 0,
          "numChannels" : 0,
          "metaData" : "Rec 12-20-20 23.trec;"
        }
      ]
    },
    {
      "id" : 22,
      "src" : "C:\\Users\\Tathagata\\Documents\\Camtasia Studio\\Rec 12-20-20 24.trec",
      "rect" : [0, 0, 960, 520],
      "lastMod" : "20201220T124542",
      "sourceTracks" : [
        {
          "range" : [0, 54],
          "type" : 0,
          "editRate" : 15,
          "trackRect" : [0, 0, 960, 520],
          "sampleRate" : 15,
          "bitDepth" : 0,
          "numChannels" : 0,
          "metaData" : "Rec 12-20-20 24.trec;"
        }
      ]
    },
    {
      "id" : 23,
      "src" : "C:\\Users\\Tathagata\\Documents\\Camtasia Studio\\Rec 12-20-20 25.trec",
      "rect" : [0, 0, 960, 520],
      "lastMod" : "20201220T124602",
      "sourceTracks" : [
        {
          "range" : [0, 58],
          "type" : 0,
          "editRate" : 15,
          "trackRect" : [0, 0, 960, 520],
          "sampleRate" : 15,
          "bitDepth" : 0,
          "numChannels" : 0,
          "metaData" : "Rec 12-20-20 25.trec;"
        }
      ]
    },
    {
      "id" : 24,
      "src" : "C:\\Users\\Tathagata\\Documents\\Camtasia Studio\\Rec 12-20-20 26.trec",
      "rect" : [0, 0, 960, 520],
      "lastMod" : "20201220T124620",
      "sourceTracks" : [
        {
          "range" : [0, 55],
          "type" : 0,
          "editRate" : 15,
          "trackRect" : [0, 0, 960, 520],
          "sampleRate" : 14,
          "bitDepth" : 0,
          "numChannels" : 0,
          "metaData" : "Rec 12-20-20 26.trec;"
        }
      ]
    },
    {
      "id" : 25,
      "src" : "C:\\Users\\Tathagata\\Documents\\Camtasia Studio\\Rec 12-20-20 27.trec",
      "rect" : [0, 0, 960, 520],
      "lastMod" : "20201220T124659",
      "sourceTracks" : [
        {
          "range" : [0, 59],
          "type" : 0,
          "editRate" : 15,
          "trackRect" : [0, 0, 960, 520],
          "sampleRate" : 15,
          "bitDepth" : 0,
          "numChannels" : 0,
          "metaData" : "Rec 12-20-20 27.trec;"
        }
      ]
    },
    {
      "id" : 26,
      "src" : "C:\\Users\\Tathagata\\Documents\\Camtasia Studio\\Rec 12-20-20 28.trec",
      "rect" : [0, 0, 960, 520],
      "lastMod" : "20201220T124719",
      "sourceTracks" : [
        {
          "range" : [0, 56],
          "type" : 0,
          "editRate" : 15,
          "trackRect" : [0, 0, 960, 520],
          "sampleRate" : 15,
          "bitDepth" : 0,
          "numChannels" : 0,
          "metaData" : "Rec 12-20-20 28.trec;"
        }
      ]
    },
    {
      "id" : 27,
      "src" : "C:\\Users\\Tathagata\\Documents\\Camtasia Studio\\Rec 12-20-20 29.trec",
      "rect" : [0, 0, 960, 520],
      "lastMod" : "20201220T124738",
      "sourceTracks" : [
        {
          "range" : [0, 58],
          "type" : 0,
          "editRate" : 15,
          "trackRect" : [0, 0, 960, 520],
          "sampleRate" : 15,
          "bitDepth" : 0,
          "numChannels" : 0,
          "metaData" : "Rec 12-20-20 29.trec;"
        }
      ]
    },
    {
      "id" : 28,
      "src" : "C:\\Users\\Tathagata\\Documents\\Camtasia Studio\\Rec 12-20-20 30.trec",
      "rect" : [0, 0, 960, 520],
      "lastMod" : "20201220T124802",
      "sourceTracks" : [
        {
          "range" : [0, 59],
          "type" : 0,
          "editRate" : 15,
          "trackRect" : [0, 0, 960, 520],
          "sampleRate" : 15,
          "bitDepth" : 0,
          "numChannels" : 0,
          "metaData" : "Rec 12-20-20 30.trec;"
        }
      ]
    },
    {
      "id" : 29,
      "src" : "C:\\Users\\Tathagata\\Documents\\Camtasia Studio\\Rec 12-20-20 31.trec",
      "rect" : [0, 0, 960, 520],
      "lastMod" : "20201220T124819",
      "sourceTracks" : [
        {
          "range" : [0, 58],
          "type" : 0,
          "editRate" : 15,
          "trackRect" : [0, 0, 960, 520],
          "sampleRate" : 15,
          "bitDepth" : 0,
          "numChannels" : 0,
          "metaData" : "Rec 12-20-20 31.trec;"
        }
      ]
    },
    {
      "id" : 30,
      "src" : "C:\\Users\\Tathagata\\Documents\\Camtasia Studio\\Rec 12-20-20 32.trec",
      "rect" : [0, 0, 960, 520],
      "lastMod" : "20201220T124844",
      "sourceTracks" : [
        {
          "range" : [0, 59],
          "type" : 0,
          "editRate" : 15,
          "trackRect" : [0, 0, 960, 520],
          "sampleRate" : 15,
          "bitDepth" : 0,
          "numChannels" : 0,
          "metaData" : "Rec 12-20-20 32.trec;"
        }
      ]
    },
    {
      "id" : 31,
      "src" : "C:\\Users\\Tathagata\\Documents\\Camtasia Studio\\Rec 12-20-20 33.trec",
      "rect" : [0, 0, 1256, 704],
      "lastMod" : "20201220T124941",
      "sourceTracks" : [
        {
          "range" : [0, 54],
          "type" : 0,
          "editRate" : 15,
          "trackRect" : [0, 0, 1256, 704],
          "sampleRate" : 14,
          "bitDepth" : 0,
          "numChannels" : 0,
          "metaData" : "Rec 12-20-20 33.trec;"
        }
      ]
    },
    {
      "id" : 32,
      "src" : "C:\\Users\\Tathagata\\Documents\\Camtasia Studio\\Rec 12-20-20 34.trec",
      "rect" : [0, 0, 1256, 704],
      "lastMod" : "20201220T141914",
      "sourceTracks" : [
        {
          "range" : [0, 104],
          "type" : 0,
          "editRate" : 15,
          "trackRect" : [0, 0, 1256, 704],
          "sampleRate" : 14,
          "bitDepth" : 0,
          "numChannels" : 0,
          "metaData" : "Rec 12-20-20 34.trec;"
        }
      ]
    },
    {
      "id" : 33,
      "src" : "C:\\Users\\Tathagata\\Documents\\Camtasia Studio\\Rec 12-20-20 35.trec",
      "rect" : [0, 0, 1256, 704],
      "lastMod" : "20201220T141937",
      "sourceTracks" : [
        {
          "range" : [0, 93],
          "type" : 0,
          "editRate" : 15,
          "trackRect" : [0, 0, 1256, 704],
          "sampleRate" : 15,
          "bitDepth" : 0,
          "numChannels" : 0,
          "metaData" : "Rec 12-20-20 35.trec;"
        }
      ]
    },
    {
      "id" : 34,
      "src" : "C:\\Users\\Tathagata\\Documents\\Camtasia Studio\\Rec 12-20-20 37.trec",
      "rect" : [0, 0, 1256, 704],
      "lastMod" : "20201220T142117",
      "sourceTracks" : [
        {
          "range" : [0, 135],
          "type" : 0,
          "editRate" : 15,
          "trackRect" : [0, 0, 1256, 704],
          "sampleRate" : 14,
          "bitDepth" : 0,
          "numChannels" : 0,
          "metaData" : "Rec 12-20-20 37.trec;"
        }
      ]
    },
    {
      "id" : 35,
      "src" : "C:\\Users\\Tathagata\\Documents\\Camtasia Studio\\Rec 12-20-20 38.trec",
      "rect" : [0, 0, 1256, 704],
      "lastMod" : "20201220T142138",
      "sourceTracks" : [
        {
          "range" : [0, 66],
          "type" : 0,
          "editRate" : 15,
          "trackRect" : [0, 0, 1256, 704],
          "sampleRate" : 15,
          "bitDepth" : 0,
          "numChannels" : 0,
          "metaData" : "Rec 12-20-20 38.trec;"
        }
      ]
    },
    {
      "id" : 36,
      "src" : "C:\\Users\\Tathagata\\Documents\\Camtasia Studio\\Rec 12-20-20 40.trec",
      "rect" : [0, 0, 972, 292],
      "lastMod" : "20201220T142813",
      "sourceTracks" : [
        {
          "range" : [0, 234],
          "type" : 0,
          "editRate" : 15,
          "trackRect" : [0, 0, 972, 292],
          "sampleRate" : 14,
          "bitDepth" : 0,
          "numChannels" : 0,
          "metaData" : "Rec 12-20-20 40.trec;"
        }
      ]
    },
    {
      "id" : 37,
      "src" : "C:\\Users\\Tathagata\\Downloads\\Game Theory\\17. E-Girl Crush.wav",
      "rect" : [0, 0, 0, 0],
      "lastMod" : "20201122T231256",
      "sourceTracks" : [
        {
          "range" : [0, 1269666667],
          "type" : 2,
          "editRate" : 10000000,
          "trackRect" : [0, 0, 0, 0],
          "sampleRate" : 44100,
          "bitDepth" : 16,
          "numChannels" : 2,
          "metaData" : ""
        }
      ]
    },
    {
      "id" : 38,
      "src" : "C:\\Users\\Tathagata\\Downloads\\Game Theory\\23. Cotton Candyland.wav",
      "rect" : [0, 0, 0, 0],
      "lastMod" : "20201124T123848",
      "sourceTracks" : [
        {
          "range" : [0, 1236666667],
          "type" : 2,
          "editRate" : 10000000,
          "trackRect" : [0, 0, 0, 0],
          "sampleRate" : 44100,
          "bitDepth" : 16,
          "numChannels" : 2,
          "metaData" : ""
        }
      ]
    }
  ],
  "timeline" : {
    "id" : 39,
    "sceneTrack" : {
      "scenes" : [
        {
          "duration" : 248.066666666667,
          "title" : "",
          "type" : "",
          "csml" : {
            "tracks" : [
              {
                "trackIndex" : 0,
                "medias" : [
                  {
                    "id" : 40,
                    "_type" : "ScreenVMFile",
                    "src" : 2,
                    "trackNumber" : 0,
                    "attributes" : {
                      "ident" : "Rec 12-20-20 3"
                    },
                    "parameters" : {
                      "scale0" : {
                        "type" : "double",
                        "defaultValue" : 0.993569131832797,
                        "interp" : "eioe"
                      },
                      "scale1" : {
                        "type" : "double",
                        "defaultValue" : 0.993569131832797,
                        "interp" : "eioe"
                      },
                      "cursorScale" : {
                        "type" : "double",
                        "defaultValue" : 1.0,
                        "interp" : "linr"
                      },
                      "cursorOpacity" : {
                        "type" : "double",
                        "defaultValue" : 1.0,
                        "interp" : "linr"
                      }
                    },
                    "effects" : [

                    ],
                    "start" : 0,
                    "duration" : 228,
                    "mediaStart" : 0,
                    "mediaDuration" : 228,
                    "scalar" : 1,
                    "metadata" : {
                      "AutoAppliedSmartFocus" : "False",
                      "WinSubProjectDisplayName" : "",
                      "clipSpeedAttribute" : false
                    },
                    "animationTracks" : {

                    }
                  },
                  {
                    "id" : 41,
                    "_type" : "ScreenVMFile",
                    "src" : 3,
                    "trackNumber" : 0,
                    "attributes" : {
                      "ident" : "Rec 12-20-20 4"
                    },
                    "parameters" : {
                      "scale0" : {
                        "type" : "double",
                        "defaultValue" : 0.954285714285714,
                        "interp" : "eioe"
                      },
                      "scale1" : {
                        "type" : "double",
                        "defaultValue" : 0.954285714285714,
                        "interp" : "eioe"
                      },
                      "cursorScale" : {
                        "type" : "double",
                        "defaultValue" : 1.0,
                        "interp" : "linr"
                      },
                      "cursorOpacity" : {
                        "type" : "double",
                        "defaultValue" : 1.0,
                        "interp" : "linr"
                      }
                    },
                    "effects" : [

                    ],
                    "start" : 228,
                    "duration" : 254,
                    "mediaStart" : 0,
                    "mediaDuration" : 254,
                    "scalar" : 1,
                    "metadata" : {
                      "AutoAppliedSmartFocus" : "False",
                      "WinSubProjectDisplayName" : "",
                      "clipSpeedAttribute" : false
                    },
                    "animationTracks" : {

                    }
                  },
                  {
                    "id" : 42,
                    "_type" : "ScreenVMFile",
                    "src" : 4,
                    "trackNumber" : 0,
                    "attributes" : {
                      "ident" : "Rec 12-20-20 5"
                    },
                    "parameters" : {
                      "scale0" : {
                        "type" : "double",
                        "defaultValue" : 0.954285714285714,
                        "interp" : "eioe"
                      },
                      "scale1" : {
                        "type" : "double",
                        "defaultValue" : 0.954285714285714,
                        "interp" : "eioe"
                      },
                      "cursorScale" : {
                        "type" : "double",
                        "defaultValue" : 1.0,
                        "interp" : "linr"
                      },
                      "cursorOpacity" : {
                        "type" : "double",
                        "defaultValue" : 1.0,
                        "interp" : "linr"
                      }
                    },
                    "effects" : [

                    ],
                    "start" : 482,
                    "duration" : 248,
                    "mediaStart" : 0,
                    "mediaDuration" : 248,
                    "scalar" : 1,
                    "metadata" : {
                      "AutoAppliedSmartFocus" : "False",
                      "WinSubProjectDisplayName" : "",
                      "clipSpeedAttribute" : false
                    },
                    "animationTracks" : {

                    }
                  },
                  {
                    "id" : 43,
                    "_type" : "StitchedMedia",
                    "minMediaStart" : 0,
                    "attributes" : {
                      "ident" : "Rec 12-20-20 2",
                      "gain" : 1.0,
                      "mixToMono" : false
                    },
                    "parameters" : {
                      "translation0" : {
                        "type" : "double",
                        "defaultValue" : 774.859579927574,
                        "keyframes" : [
                          {
                            "time" : -18,
                            "value" : 801.110364346479,
                            "duration" : 30
                          },
                          {
                            "time" : 70,
                            "value" : 244.717193833429,
                            "duration" : 30
                          },
                          {
                            "time" : 160,
                            "value" : -331.618918949309,
                            "duration" : 30
                          },
                          {
                            "time" : 267,
                            "value" : -727.399211174724,
                            "duration" : 30
                          },
                          {
                            "time" : 369,
                            "value" : 0.0,
                            "duration" : 30
                          }
                        ]
                      },
                      "translation1" : {
                        "type" : "double",
                        "defaultValue" : -418.775245319675,
                        "keyframes" : [
                          {
                            "time" : -18,
                            "value" : -432.962562569968,
                            "duration" : 30
                          },
                          {
                            "time" : 70,
                            "value" : -432.962592426837,
                            "duration" : 30
                          },
                          {
                            "time" : 160,
                            "value" : -402.087487386654,
                            "duration" : 30
                          },
                          {
                            "time" : 267,
                            "value" : -412.241372875088,
                            "duration" : 30
                          },
                          {
                            "time" : 369,
                            "value" : 0.0,
                            "duration" : 30
                          }
                        ]
                      },
                      "scale0" : {
                        "type" : "double",
                        "defaultValue" : 2.25381796900333,
                        "keyframes" : [
                          {
                            "time" : -18,
                            "value" : 2.29629496232892,
                            "duration" : 30
                          },
                          {
                            "time" : 70,
                            "value" : 2.29629493346119,
                            "duration" : 30
                          },
                          {
                            "time" : 160,
                            "value" : 2.29629498271794,
                            "duration" : 30
                          },
                          {
                            "time" : 267,
                            "value" : 2.29629494994833,
                            "duration" : 30
                          },
                          {
                            "time" : 369,
                            "value" : 1.10596011703884,
                            "duration" : 30
                          }
                        ]
                      },
                      "scale1" : {
                        "type" : "double",
                        "defaultValue" : 2.25381820903935,
                        "keyframes" : [
                          {
                            "time" : -18,
                            "value" : 2.29629521049692,
                            "duration" : 30
                          },
                          {
                            "time" : 70,
                            "value" : 2.29629532965889,
                            "duration" : 30
                          },
                          {
                            "time" : 160,
                            "value" : 2.29629547587591,
                            "duration" : 30
                          },
                          {
                            "time" : 267,
                            "value" : 2.29629525695249,
                            "duration" : 30
                          },
                          {
                            "time" : 369,
                            "value" : 1.10596026490066,
                            "duration" : 30
                          }
                        ]
                      },
                      "cursorOpacity" : 1.0,
                      "cursorScale" : 1.0
                    },
                    "medias" : [
                        {
                          "id" : 44,
                          "_type" : "ScreenVMFile",
                          "src" : 1,
                          "trackNumber" : 0,
                          "attributes" : {
                            "ident" : "Rec 12-20-20 2"
                          },
                          "parameters" : {
                            "cursorScale" : {
                              "type" : "double",
                              "defaultValue" : 0.0,
                              "interp" : "linr"
                            },
                            "cursorOpacity" : {
                              "type" : "double",
                              "defaultValue" : 0.0,
                              "interp" : "linr"
                            }
                          },
                          "effects" : [

                          ],
                          "start" : 0,
                          "duration" : 78,
                          "mediaStart" : 0,
                          "mediaDuration" : 78,
                          "scalar" : 1,
                          "metadata" : {
                            "AutoAppliedSmartFocus" : "False",
                            "WinSubProjectDisplayName" : "",
                            "clipSpeedAttribute" : false,
                            "default-scale0" : 1.0,
                            "default-scale1" : 1.0,
                            "default-translation0" : 0.0,
                            "default-translation1" : 0.0
                          },
                          "animationTracks" : {

                          }
                        },
                        {
                          "id" : 45,
                          "_type" : "ScreenIMFile",
                          "src" : 1,
                          "trackNumber" : 0,
                          "trimStartSum" : 0,
                          "attributes" : {
                            "ident" : "Rec 12-20-20 2"
                          },
                          "parameters" : {
                            "cursorOpacity" : {
                              "type" : "double",
                              "defaultValue" : 0.0,
                              "interp" : "linr"
                            },
                            "cursorScale" : {
                              "type" : "double",
                              "defaultValue" : 0.0,
                              "interp" : "linr"
                            }
                          },
                          "effects" : [

                          ],
                          "start" : 78,
                          "duration" : 217,
                          "mediaStart" : 77,
                          "mediaDuration" : 1,
                          "scalar" : 1,
                          "metadata" : {
                            "AutoAppliedSmartFocus" : "False",
                            "WinSubProjectDisplayName" : ""
                          },
                          "animationTracks" : {

                          }
                        },
                        {
                          "id" : 46,
                          "_type" : "ScreenVMFile",
                          "src" : 1,
                          "trackNumber" : 0,
                          "attributes" : {
                            "ident" : "Rec 12-20-20 2"
                          },
                          "parameters" : {
                            "cursorScale" : {
                              "type" : "double",
                              "defaultValue" : 0.0,
                              "interp" : "linr"
                            },
                            "cursorOpacity" : {
                              "type" : "double",
                              "defaultValue" : 0.0,
                              "interp" : "linr"
                            }
                          },
                          "effects" : [

                          ],
                          "start" : 295,
                          "duration" : 192,
                          "mediaStart" : 78,
                          "mediaDuration" : 192,
                          "scalar" : 1,
                          "metadata" : {
                            "AutoAppliedSmartFocus" : "False",
                            "WinSubProjectDisplayName" : "",
                            "clipSpeedAttribute" : false,
                            "default-scale0" : 1.0,
                            "default-scale1" : 1.0,
                            "default-translation0" : 0.0,
                            "default-translation1" : 0.0
                          },
                          "animationTracks" : {

                          }
                        }
                    ],
                    "effects" : [

                    ],
                    "start" : 730,
                    "duration" : 487,
                    "mediaStart" : 0,
                    "mediaDuration" : 487,
                    "scalar" : 1,
                    "metadata" : {
                      "AutoAppliedSmartFocus" : "False",
                      "WinSubProjectDisplayName" : "",
                      "clipSpeedAttribute" : false
                    },
                    "animationTracks" : {
                      "visual" : [
                        {
                          "range" : [ -18, 30]
                        },
                        {
                          "range" : [ 70, 30]
                        },
                        {
                          "range" : [ 160, 30]
                        },
                        {
                          "range" : [ 267, 30]
                        },
                        {
                          "range" : [ 369, 30]
                        }
                      ]
                    }
                  },
                  {
                    "id" : 47,
                    "_type" : "ScreenVMFile",
                    "src" : 6,
                    "trackNumber" : 0,
                    "attributes" : {
                      "ident" : "Rec 12-20-20 7"
                    },
                    "parameters" : {
                      "translation0" : {
                        "type" : "double",
                        "defaultValue" : 209.866894197914,
                        "interp" : "eioe",
                        "keyframes" : [
                          {
                            "time" : 105,
                            "value" : -7.57305565137756e-05,
                            "duration" : 53
                          }
                        ]
                      },
                      "translation1" : {
                        "type" : "double",
                        "defaultValue" : 3.43360895271871e-11,
                        "interp" : "eioe",
                        "keyframes" : [
                          {
                            "time" : 105,
                            "value" : 8.82480010488962e-06,
                            "duration" : 53
                          }
                        ]
                      },
                      "scale0" : {
                        "type" : "double",
                        "defaultValue" : 1.0,
                        "interp" : "eioe",
                        "keyframes" : [
                          {
                            "time" : 105,
                            "value" : 1.54629593877575,
                            "duration" : 53
                          }
                        ]
                      },
                      "scale1" : {
                        "type" : "double",
                        "defaultValue" : 1.0,
                        "interp" : "eioe",
                        "keyframes" : [
                          {
                            "time" : 105,
                            "value" : 1.54629637752967,
                            "duration" : 53
                          }
                        ]
                      },
                      "cursorScale" : {
                        "type" : "double",
                        "defaultValue" : 1.0,
                        "interp" : "linr"
                      },
                      "cursorOpacity" : {
                        "type" : "double",
                        "defaultValue" : 1.0,
                        "interp" : "linr"
                      }
                    },
                    "effects" : [

                    ],
                    "start" : 1217,
                    "duration" : 228,
                    "mediaStart" : 0,
                    "mediaDuration" : 228,
                    "scalar" : 1,
                    "metadata" : {
                      "AutoAppliedSmartFocus" : "False",
                      "WinSubProjectDisplayName" : "",
                      "clipSpeedAttribute" : false,
                      "default-scale0" : 1.0,
                      "default-scale1" : 1.0,
                      "default-translation0" : 0.0,
                      "default-translation1" : 0.0
                    },
                    "animationTracks" : {
                      "visual" : [
                        {
                          "range" : [ 105, 53]
                        }
                      ]
                    }
                  },
                  {
                    "id" : 48,
                    "_type" : "ScreenVMFile",
                    "src" : 5,
                    "trackNumber" : 0,
                    "attributes" : {
                      "ident" : "Rec 12-20-20 6"
                    },
                    "parameters" : {
                      "translation0" : {
                        "type" : "double",
                        "defaultValue" : 6.23767704155398e-11,
                        "interp" : "eioe"
                      },
                      "cursorScale" : {
                        "type" : "double",
                        "defaultValue" : 1.0,
                        "interp" : "linr"
                      },
                      "cursorOpacity" : {
                        "type" : "double",
                        "defaultValue" : 1.0,
                        "interp" : "linr"
                      }
                    },
                    "effects" : [

                    ],
                    "start" : 1445,
                    "duration" : 204,
                    "mediaStart" : 0,
                    "mediaDuration" : 204,
                    "scalar" : 1,
                    "metadata" : {
                      "AutoAppliedSmartFocus" : "False",
                      "WinSubProjectDisplayName" : "",
                      "clipSpeedAttribute" : false,
                      "default-translation0" : 0.0
                    },
                    "animationTracks" : {

                    }
                  },
                  {
                    "id" : 49,
                    "_type" : "StitchedMedia",
                    "minMediaStart" : 0,
                    "attributes" : {
                      "ident" : "Rec 12-20-20 8",
                      "gain" : 1.0,
                      "mixToMono" : false
                    },
                    "parameters" : {
                      "translation0" : {
                        "type" : "double",
                        "defaultValue" : 280.000000000014,
                        "keyframes" : [
                          {
                            "time" : 54,
                            "value" : 16.0741253657826,
                            "duration" : 30
                          },
                          {
                            "time" : 118,
                            "value" : 6.97919494359555,
                            "duration" : 30
                          },
                          {
                            "time" : 194,
                            "value" : -5.98820803337837,
                            "duration" : 30
                          }
                        ]
                      },
                      "translation1" : {
                        "type" : "double",
                        "defaultValue" : 1.824496109748e-11,
                        "keyframes" : [
                          {
                            "time" : 54,
                            "value" : -362.681260087025,
                            "duration" : 30
                          },
                          {
                            "time" : 118,
                            "value" : 259.932819450199,
                            "duration" : 30
                          },
                          {
                            "time" : 194,
                            "value" : 30.3105096759091,
                            "duration" : 30
                          }
                        ]
                      },
                      "scale0" : {
                        "type" : "double",
                        "defaultValue" : 1.0,
                        "keyframes" : [
                          {
                            "time" : 54,
                            "value" : 2.1676364158465,
                            "duration" : 30
                          },
                          {
                            "time" : 118,
                            "value" : 2.16763653626806,
                            "duration" : 30
                          },
                          {
                            "time" : 194,
                            "value" : 1.32959946566654,
                            "duration" : 30
                          }
                        ]
                      },
                      "scale1" : {
                        "type" : "double",
                        "defaultValue" : 1.0,
                        "keyframes" : [
                          {
                            "time" : 54,
                            "value" : 2.16763770450271,
                            "duration" : 30
                          },
                          {
                            "time" : 118,
                            "value" : 2.16763764129512,
                            "duration" : 30
                          },
                          {
                            "time" : 194,
                            "value" : 1.32960046835789,
                            "duration" : 30
                          }
                        ]
                      },
                      "cursorOpacity" : 1.0,
                      "cursorScale" : 1.0
                    },
                    "medias" : [
                        {
                          "id" : 50,
                          "_type" : "ScreenVMFile",
                          "src" : 7,
                          "trackNumber" : 0,
                          "attributes" : {
                            "ident" : "Rec 12-20-20 8"
                          },
                          "parameters" : {
                            "cursorScale" : {
                              "type" : "double",
                              "defaultValue" : 0.0,
                              "interp" : "linr"
                            },
                            "cursorOpacity" : {
                              "type" : "double",
                              "defaultValue" : 0.0,
                              "interp" : "linr"
                            }
                          },
                          "effects" : [

                          ],
                          "start" : 0,
                          "duration" : 47,
                          "mediaStart" : 0,
                          "mediaDuration" : 47,
                          "scalar" : 1,
                          "metadata" : {
                            "AutoAppliedSmartFocus" : "False",
                            "WinSubProjectDisplayName" : "",
                            "clipSpeedAttribute" : false
                          },
                          "animationTracks" : {

                          }
                        },
                        {
                          "id" : 51,
                          "_type" : "ScreenIMFile",
                          "src" : 7,
                          "trackNumber" : 0,
                          "trimStartSum" : 0,
                          "attributes" : {
                            "ident" : "Rec 12-20-20 8"
                          },
                          "parameters" : {
                            "cursorOpacity" : {
                              "type" : "double",
                              "defaultValue" : 0.0,
                              "interp" : "linr"
                            },
                            "cursorScale" : {
                              "type" : "double",
                              "defaultValue" : 0.0,
                              "interp" : "linr"
                            }
                          },
                          "effects" : [

                          ],
                          "start" : 47,
                          "duration" : 153,
                          "mediaStart" : 46,
                          "mediaDuration" : 1,
                          "scalar" : 1,
                          "metadata" : {
                            "AutoAppliedSmartFocus" : "False",
                            "WinSubProjectDisplayName" : ""
                          },
                          "animationTracks" : {

                          }
                        },
                        {
                          "id" : 52,
                          "_type" : "ScreenVMFile",
                          "src" : 7,
                          "trackNumber" : 0,
                          "attributes" : {
                            "ident" : "Rec 12-20-20 8"
                          },
                          "parameters" : {
                            "cursorScale" : {
                              "type" : "double",
                              "defaultValue" : 0.0,
                              "interp" : "linr"
                            },
                            "cursorOpacity" : {
                              "type" : "double",
                              "defaultValue" : 0.0,
                              "interp" : "linr"
                            }
                          },
                          "effects" : [

                          ],
                          "start" : 200,
                          "duration" : 163,
                          "mediaStart" : 47,
                          "mediaDuration" : 163,
                          "scalar" : 1,
                          "metadata" : {
                            "AutoAppliedSmartFocus" : "False",
                            "WinSubProjectDisplayName" : "",
                            "clipSpeedAttribute" : false
                          },
                          "animationTracks" : {

                          }
                        }
                    ],
                    "effects" : [

                    ],
                    "start" : 1649,
                    "duration" : 298,
                    "mediaStart" : 0,
                    "mediaDuration" : 298,
                    "scalar" : 1,
                    "metadata" : {
                      "AutoAppliedSmartFocus" : "False",
                      "WinSubProjectDisplayName" : "",
                      "clipSpeedAttribute" : false,
                      "default-scale0" : 1.0,
                      "default-scale1" : 1.0,
                      "default-translation0" : 0.0,
                      "default-translation1" : 0.0
                    },
                    "animationTracks" : {
                      "visual" : [
                        {
                          "range" : [ 54, 30]
                        },
                        {
                          "range" : [ 118, 30]
                        },
                        {
                          "range" : [ 194, 30]
                        }
                      ]
                    }
                  },
                  {
                    "id" : 53,
                    "_type" : "ScreenVMFile",
                    "src" : 8,
                    "trackNumber" : 0,
                    "attributes" : {
                      "ident" : "Rec 12-20-20 9"
                    },
                    "parameters" : {
                      "scale0" : {
                        "type" : "double",
                        "defaultValue" : 0.948863636363636,
                        "interp" : "eioe"
                      },
                      "scale1" : {
                        "type" : "double",
                        "defaultValue" : 0.948863636363636,
                        "interp" : "eioe"
                      },
                      "cursorScale" : {
                        "type" : "double",
                        "defaultValue" : 1.0,
                        "interp" : "linr"
                      },
                      "cursorOpacity" : {
                        "type" : "double",
                        "defaultValue" : 1.0,
                        "interp" : "linr"
                      }
                    },
                    "effects" : [

                    ],
                    "start" : 1947,
                    "duration" : 552,
                    "mediaStart" : 88,
                    "mediaDuration" : 552,
                    "scalar" : 1,
                    "metadata" : {
                      "AutoAppliedSmartFocus" : "False",
                      "WinSubProjectDisplayName" : "",
                      "clipSpeedAttribute" : false
                    },
                    "animationTracks" : {

                    }
                  },
                  {
                    "id" : 54,
                    "_type" : "ScreenVMFile",
                    "src" : 9,
                    "trackNumber" : 0,
                    "attributes" : {
                      "ident" : "Rec 12-20-20 11"
                    },
                    "parameters" : {
                      "scale0" : {
                        "type" : "double",
                        "defaultValue" : 0.954285714285714,
                        "interp" : "eioe"
                      },
                      "scale1" : {
                        "type" : "double",
                        "defaultValue" : 0.954285714285714,
                        "interp" : "eioe"
                      },
                      "cursorScale" : {
                        "type" : "double",
                        "defaultValue" : 1.0,
                        "interp" : "linr"
                      },
                      "cursorOpacity" : {
                        "type" : "double",
                        "defaultValue" : 1.0,
                        "interp" : "linr"
                      }
                    },
                    "effects" : [

                    ],
                    "start" : 2499,
                    "duration" : 328,
                    "mediaStart" : 0,
                    "mediaDuration" : 328,
                    "scalar" : 1,
                    "metadata" : {
                      "AutoAppliedSmartFocus" : "False",
                      "WinSubProjectDisplayName" : "",
                      "clipSpeedAttribute" : false
                    },
                    "animationTracks" : {

                    }
                  },
                  {
                    "id" : 55,
                    "_type" : "ScreenVMFile",
                    "src" : 10,
                    "trackNumber" : 0,
                    "attributes" : {
                      "ident" : "Rec 12-20-20 12"
                    },
                    "parameters" : {
                      "scale0" : {
                        "type" : "double",
                        "defaultValue" : 0.954285714285714,
                        "interp" : "eioe"
                      },
                      "scale1" : {
                        "type" : "double",
                        "defaultValue" : 0.954285714285714,
                        "interp" : "eioe"
                      },
                      "cursorScale" : {
                        "type" : "double",
                        "defaultValue" : 1.0,
                        "interp" : "linr"
                      },
                      "cursorOpacity" : {
                        "type" : "double",
                        "defaultValue" : 1.0,
                        "interp" : "linr"
                      }
                    },
                    "effects" : [

                    ],
                    "start" : 2827,
                    "duration" : 272,
                    "mediaStart" : 0,
                    "mediaDuration" : 272,
                    "scalar" : 1,
                    "metadata" : {
                      "AutoAppliedSmartFocus" : "False",
                      "WinSubProjectDisplayName" : "",
                      "clipSpeedAttribute" : false
                    },
                    "animationTracks" : {

                    }
                  },
                  {
                    "id" : 56,
                    "_type" : "ScreenVMFile",
                    "src" : 11,
                    "trackNumber" : 0,
                    "attributes" : {
                      "ident" : "Rec 12-20-20 13"
                    },
                    "parameters" : {
                      "scale0" : {
                        "type" : "double",
                        "defaultValue" : 0.954285714285714,
                        "interp" : "eioe"
                      },
                      "scale1" : {
                        "type" : "double",
                        "defaultValue" : 0.954285714285714,
                        "interp" : "eioe"
                      },
                      "cursorScale" : {
                        "type" : "double",
                        "defaultValue" : 1.0,
                        "interp" : "linr"
                      },
                      "cursorOpacity" : {
                        "type" : "double",
                        "defaultValue" : 1.0,
                        "interp" : "linr"
                      }
                    },
                    "effects" : [

                    ],
                    "start" : 3099,
                    "duration" : 316,
                    "mediaStart" : 0,
                    "mediaDuration" : 316,
                    "scalar" : 1,
                    "metadata" : {
                      "AutoAppliedSmartFocus" : "False",
                      "WinSubProjectDisplayName" : "",
                      "clipSpeedAttribute" : false
                    },
                    "animationTracks" : {

                    }
                  },
                  {
                    "id" : 57,
                    "_type" : "ScreenVMFile",
                    "src" : 12,
                    "trackNumber" : 0,
                    "attributes" : {
                      "ident" : "Rec 12-20-20 14"
                    },
                    "parameters" : {
                      "scale0" : {
                        "type" : "double",
                        "defaultValue" : 0.954285714285714,
                        "interp" : "eioe"
                      },
                      "scale1" : {
                        "type" : "double",
                        "defaultValue" : 0.954285714285714,
                        "interp" : "eioe"
                      },
                      "cursorScale" : {
                        "type" : "double",
                        "defaultValue" : 1.0,
                        "interp" : "linr"
                      },
                      "cursorOpacity" : {
                        "type" : "double",
                        "defaultValue" : 1.0,
                        "interp" : "linr"
                      }
                    },
                    "effects" : [

                    ],
                    "start" : 3415,
                    "duration" : 150,
                    "mediaStart" : 0,
                    "mediaDuration" : 150,
                    "scalar" : 1,
                    "metadata" : {
                      "AutoAppliedSmartFocus" : "False",
                      "WinSubProjectDisplayName" : "",
                      "clipSpeedAttribute" : false
                    },
                    "animationTracks" : {

                    }
                  },
                  {
                    "id" : 58,
                    "_type" : "StitchedMedia",
                    "minMediaStart" : 0,
                    "attributes" : {
                      "ident" : "Rec 12-20-20 16",
                      "gain" : 1.0,
                      "mixToMono" : false
                    },
                    "parameters" : {
                      "translation0" : {
                        "type" : "double",
                        "defaultValue" : 0.0,
                        "keyframes" : [
                          {
                            "time" : -29,
                            "value" : 301.113248381507,
                            "duration" : 29
                          },
                          {
                            "time" : 0,
                            "value" : 290.452336665286,
                            "duration" : 1
                          },
                          {
                            "time" : 116,
                            "value" : -5.6843418860808e-14,
                            "duration" : 51
                          }
                        ]
                      },
                      "translation1" : {
                        "type" : "double",
                        "defaultValue" : 0.0,
                        "keyframes" : [
                          {
                            "time" : -29,
                            "value" : 1.04838804304563e-10,
                            "duration" : 29
                          },
                          {
                            "time" : 0,
                            "value" : 1.25623955682386e-11,
                            "duration" : 1
                          }
                        ]
                      },
                      "scale0" : {
                        "type" : "double",
                        "defaultValue" : 1.0,
                        "keyframes" : [
                          {
                            "time" : -29,
                            "value" : 0.660180732538801,
                            "duration" : 29
                          },
                          {
                            "time" : 0,
                            "value" : 0.642307586736302,
                            "duration" : 1
                          },
                          {
                            "time" : 116,
                            "value" : 1.28461517347275,
                            "duration" : 51
                          }
                        ]
                      },
                      "scale1" : {
                        "type" : "double",
                        "defaultValue" : 1.0,
                        "keyframes" : [
                          {
                            "time" : -29,
                            "value" : 0.66018099547521,
                            "duration" : 29
                          },
                          {
                            "time" : 0,
                            "value" : 0.642307692307621,
                            "duration" : 1
                          },
                          {
                            "time" : 116,
                            "value" : 1.28461538461538,
                            "duration" : 51
                          }
                        ]
                      },
                      "cursorOpacity" : 1.0,
                      "cursorScale" : 1.0
                    },
                    "medias" : [
                        {
                          "id" : 59,
                          "_type" : "ScreenVMFile",
                          "src" : 14,
                          "trackNumber" : 0,
                          "attributes" : {
                            "ident" : "Rec 12-20-20 16"
                          },
                          "parameters" : {
                            "cursorScale" : {
                              "type" : "double",
                              "defaultValue" : 0.0,
                              "interp" : "linr"
                            },
                            "cursorOpacity" : {
                              "type" : "double",
                              "defaultValue" : 0.0,
                              "interp" : "linr"
                            }
                          },
                          "effects" : [

                          ],
                          "start" : 0,
                          "duration" : 1,
                          "mediaStart" : 0,
                          "mediaDuration" : 1,
                          "scalar" : 1,
                          "metadata" : {
                            "AutoAppliedSmartFocus" : "False",
                            "WinSubProjectDisplayName" : "",
                            "clipSpeedAttribute" : false
                          },
                          "animationTracks" : {

                          }
                        },
                        {
                          "id" : 60,
                          "_type" : "ScreenIMFile",
                          "src" : 14,
                          "trackNumber" : 0,
                          "trimStartSum" : 0,
                          "attributes" : {
                            "ident" : "Rec 12-20-20 16"
                          },
                          "parameters" : {
                            "cursorOpacity" : {
                              "type" : "double",
                              "defaultValue" : 0.0,
                              "interp" : "linr"
                            },
                            "cursorScale" : {
                              "type" : "double",
                              "defaultValue" : 0.0,
                              "interp" : "linr"
                            }
                          },
                          "effects" : [

                          ],
                          "start" : 1,
                          "duration" : 167,
                          "mediaStart" : 0,
                          "mediaDuration" : 1,
                          "scalar" : 1,
                          "metadata" : {
                            "AutoAppliedSmartFocus" : "False",
                            "WinSubProjectDisplayName" : ""
                          },
                          "animationTracks" : {

                          }
                        },
                        {
                          "id" : 61,
                          "_type" : "ScreenVMFile",
                          "src" : 14,
                          "trackNumber" : 0,
                          "attributes" : {
                            "ident" : "Rec 12-20-20 16"
                          },
                          "parameters" : {
                            "cursorScale" : {
                              "type" : "double",
                              "defaultValue" : 0.0,
                              "interp" : "linr"
                            },
                            "cursorOpacity" : {
                              "type" : "double",
                              "defaultValue" : 0.0,
                              "interp" : "linr"
                            }
                          },
                          "effects" : [

                          ],
                          "start" : 168,
                          "duration" : 101,
                          "mediaStart" : 1,
                          "mediaDuration" : 101,
                          "scalar" : 1,
                          "metadata" : {
                            "AutoAppliedSmartFocus" : "False",
                            "WinSubProjectDisplayName" : "",
                            "clipSpeedAttribute" : false
                          },
                          "animationTracks" : {

                          }
                        }
                    ],
                    "effects" : [

                    ],
                    "start" : 3565,
                    "duration" : 269,
                    "mediaStart" : 0,
                    "mediaDuration" : 269,
                    "scalar" : 1,
                    "metadata" : {
                      "AutoAppliedSmartFocus" : "False",
                      "WinSubProjectDisplayName" : "",
                      "clipSpeedAttribute" : false,
                      "default-scale0" : 1.0,
                      "default-scale1" : 1.0,
                      "default-translation0" : 0.0,
                      "default-translation1" : 0.0
                    },
                    "animationTracks" : {
                      "visual" : [
                        {
                          "range" : [ -29, 29]
                        },
                        {
                          "range" : [ 0, 1]
                        },
                        {
                          "range" : [ 116, 51]
                        }
                      ]
                    }
                  },
                  {
                    "id" : 62,
                    "_type" : "ScreenVMFile",
                    "src" : 15,
                    "trackNumber" : 0,
                    "attributes" : {
                      "ident" : "Rec 12-20-20 17"
                    },
                    "parameters" : {
                      "scale0" : {
                        "type" : "double",
                        "defaultValue" : 1.0,
                        "interp" : "eioe",
                        "keyframes" : [
                          {
                            "time" : -30,
                            "value" : 1.28461538461538,
                            "duration" : 30
                          }
                        ]
                      },
                      "scale1" : {
                        "type" : "double",
                        "defaultValue" : 1.0,
                        "interp" : "eioe",
                        "keyframes" : [
                          {
                            "time" : -30,
                            "value" : 1.28461538461538,
                            "duration" : 30
                          }
                        ]
                      },
                      "cursorScale" : {
                        "type" : "double",
                        "defaultValue" : 1.0,
                        "interp" : "linr"
                      },
                      "cursorOpacity" : {
                        "type" : "double",
                        "defaultValue" : 1.0,
                        "interp" : "linr"
                      }
                    },
                    "effects" : [

                    ],
                    "start" : 3834,
                    "duration" : 110,
                    "mediaStart" : 0,
                    "mediaDuration" : 110,
                    "scalar" : 1,
                    "metadata" : {
                      "AutoAppliedSmartFocus" : "False",
                      "WinSubProjectDisplayName" : "",
                      "clipSpeedAttribute" : false,
                      "default-scale0" : 1.0,
                      "default-scale1" : 1.0
                    },
                    "animationTracks" : {
                      "visual" : [
                        {
                          "range" : [ -30, 30]
                        }
                      ]
                    }
                  },
                  {
                    "id" : 63,
                    "_type" : "ScreenVMFile",
                    "src" : 16,
                    "trackNumber" : 0,
                    "attributes" : {
                      "ident" : "Rec 12-20-20 18"
                    },
                    "parameters" : {
                      "scale0" : {
                        "type" : "double",
                        "defaultValue" : 1.0,
                        "interp" : "eioe",
                        "keyframes" : [
                          {
                            "time" : -30,
                            "value" : 1.28461538461538,
                            "duration" : 30
                          }
                        ]
                      },
                      "scale1" : {
                        "type" : "double",
                        "defaultValue" : 1.0,
                        "interp" : "eioe",
                        "keyframes" : [
                          {
                            "time" : -30,
                            "value" : 1.28461538461538,
                            "duration" : 30
                          }
                        ]
                      },
                      "cursorScale" : {
                        "type" : "double",
                        "defaultValue" : 1.0,
                        "interp" : "linr"
                      },
                      "cursorOpacity" : {
                        "type" : "double",
                        "defaultValue" : 1.0,
                        "interp" : "linr"
                      }
                    },
                    "effects" : [

                    ],
                    "start" : 3944,
                    "duration" : 112,
                    "mediaStart" : 0,
                    "mediaDuration" : 112,
                    "scalar" : 1,
                    "metadata" : {
                      "AutoAppliedSmartFocus" : "False",
                      "WinSubProjectDisplayName" : "",
                      "clipSpeedAttribute" : false,
                      "default-scale0" : 1.0,
                      "default-scale1" : 1.0
                    },
                    "animationTracks" : {
                      "visual" : [
                        {
                          "range" : [ -30, 30]
                        }
                      ]
                    }
                  },
                  {
                    "id" : 64,
                    "_type" : "ScreenVMFile",
                    "src" : 17,
                    "trackNumber" : 0,
                    "attributes" : {
                      "ident" : "Rec 12-20-20 19"
                    },
                    "parameters" : {
                      "scale0" : {
                        "type" : "double",
                        "defaultValue" : 1.0,
                        "interp" : "eioe",
                        "keyframes" : [
                          {
                            "time" : -30,
                            "value" : 1.28461538461538,
                            "duration" : 30
                          }
                        ]
                      },
                      "scale1" : {
                        "type" : "double",
                        "defaultValue" : 1.0,
                        "interp" : "eioe",
                        "keyframes" : [
                          {
                            "time" : -30,
                            "value" : 1.28461538461538,
                            "duration" : 30
                          }
                        ]
                      },
                      "cursorScale" : {
                        "type" : "double",
                        "defaultValue" : 1.0,
                        "interp" : "linr"
                      },
                      "cursorOpacity" : {
                        "type" : "double",
                        "defaultValue" : 1.0,
                        "interp" : "linr"
                      }
                    },
                    "effects" : [

                    ],
                    "start" : 4056,
                    "duration" : 114,
                    "mediaStart" : 0,
                    "mediaDuration" : 114,
                    "scalar" : 1,
                    "metadata" : {
                      "AutoAppliedSmartFocus" : "False",
                      "WinSubProjectDisplayName" : "",
                      "clipSpeedAttribute" : false,
                      "default-scale0" : 1.0,
                      "default-scale1" : 1.0
                    },
                    "animationTracks" : {
                      "visual" : [
                        {
                          "range" : [ -30, 30]
                        }
                      ]
                    }
                  },
                  {
                    "id" : 65,
                    "_type" : "ScreenVMFile",
                    "src" : 18,
                    "trackNumber" : 0,
                    "attributes" : {
                      "ident" : "Rec 12-20-20 20"
                    },
                    "parameters" : {
                      "scale0" : {
                        "type" : "double",
                        "defaultValue" : 1.0,
                        "interp" : "eioe",
                        "keyframes" : [
                          {
                            "time" : -30,
                            "value" : 1.28461538461538,
                            "duration" : 30
                          }
                        ]
                      },
                      "scale1" : {
                        "type" : "double",
                        "defaultValue" : 1.0,
                        "interp" : "eioe",
                        "keyframes" : [
                          {
                            "time" : -30,
                            "value" : 1.28461538461538,
                            "duration" : 30
                          }
                        ]
                      },
                      "cursorScale" : {
                        "type" : "double",
                        "defaultValue" : 1.0,
                        "interp" : "linr"
                      },
                      "cursorOpacity" : {
                        "type" : "double",
                        "defaultValue" : 1.0,
                        "interp" : "linr"
                      }
                    },
                    "effects" : [

                    ],
                    "start" : 4170,
                    "duration" : 106,
                    "mediaStart" : 0,
                    "mediaDuration" : 106,
                    "scalar" : 1,
                    "metadata" : {
                      "AutoAppliedSmartFocus" : "False",
                      "WinSubProjectDisplayName" : "",
                      "clipSpeedAttribute" : false,
                      "default-scale0" : 1.0,
                      "default-scale1" : 1.0
                    },
                    "animationTracks" : {
                      "visual" : [
                        {
                          "range" : [ -30, 30]
                        }
                      ]
                    }
                  },
                  {
                    "id" : 66,
                    "_type" : "ScreenVMFile",
                    "src" : 19,
                    "trackNumber" : 0,
                    "attributes" : {
                      "ident" : "Rec 12-20-20 21"
                    },
                    "parameters" : {
                      "scale0" : {
                        "type" : "double",
                        "defaultValue" : 1.0,
                        "interp" : "eioe",
                        "keyframes" : [
                          {
                            "time" : -30,
                            "value" : 1.28461538461538,
                            "duration" : 30
                          }
                        ]
                      },
                      "scale1" : {
                        "type" : "double",
                        "defaultValue" : 1.0,
                        "interp" : "eioe",
                        "keyframes" : [
                          {
                            "time" : -30,
                            "value" : 1.28461538461538,
                            "duration" : 30
                          }
                        ]
                      },
                      "cursorScale" : {
                        "type" : "double",
                        "defaultValue" : 1.0,
                        "interp" : "linr"
                      },
                      "cursorOpacity" : {
                        "type" : "double",
                        "defaultValue" : 1.0,
                        "interp" : "linr"
                      }
                    },
                    "effects" : [

                    ],
                    "start" : 4276,
                    "duration" : 118,
                    "mediaStart" : 0,
                    "mediaDuration" : 118,
                    "scalar" : 1,
                    "metadata" : {
                      "AutoAppliedSmartFocus" : "False",
                      "WinSubProjectDisplayName" : "",
                      "clipSpeedAttribute" : false,
                      "default-scale0" : 1.0,
                      "default-scale1" : 1.0
                    },
                    "animationTracks" : {
                      "visual" : [
                        {
                          "range" : [ -30, 30]
                        }
                      ]
                    }
                  },
                  {
                    "id" : 67,
                    "_type" : "ScreenVMFile",
                    "src" : 20,
                    "trackNumber" : 0,
                    "attributes" : {
                      "ident" : "Rec 12-20-20 22"
                    },
                    "parameters" : {
                      "scale0" : {
                        "type" : "double",
                        "defaultValue" : 1.0,
                        "interp" : "eioe",
                        "keyframes" : [
                          {
                            "time" : -30,
                            "value" : 1.28461538461538,
                            "duration" : 30
                          }
                        ]
                      },
                      "scale1" : {
                        "type" : "double",
                        "defaultValue" : 1.0,
                        "interp" : "eioe",
                        "keyframes" : [
                          {
                            "time" : -30,
                            "value" : 1.28461538461538,
                            "duration" : 30
                          }
                        ]
                      },
                      "cursorScale" : {
                        "type" : "double",
                        "defaultValue" : 1.0,
                        "interp" : "linr"
                      },
                      "cursorOpacity" : {
                        "type" : "double",
                        "defaultValue" : 1.0,
                        "interp" : "linr"
                      }
                    },
                    "effects" : [

                    ],
                    "start" : 4394,
                    "duration" : 112,
                    "mediaStart" : 0,
                    "mediaDuration" : 112,
                    "scalar" : 1,
                    "metadata" : {
                      "AutoAppliedSmartFocus" : "False",
                      "WinSubProjectDisplayName" : "",
                      "clipSpeedAttribute" : false,
                      "default-scale0" : 1.0,
                      "default-scale1" : 1.0
                    },
                    "animationTracks" : {
                      "visual" : [
                        {
                          "range" : [ -30, 30]
                        }
                      ]
                    }
                  },
                  {
                    "id" : 68,
                    "_type" : "ScreenVMFile",
                    "src" : 13,
                    "trackNumber" : 0,
                    "attributes" : {
                      "ident" : "Rec 12-20-20 15"
                    },
                    "parameters" : {
                      "scale0" : {
                        "type" : "double",
                        "defaultValue" : 0.954285714285714,
                        "interp" : "eioe"
                      },
                      "scale1" : {
                        "type" : "double",
                        "defaultValue" : 0.954285714285714,
                        "interp" : "eioe"
                      },
                      "cursorScale" : {
                        "type" : "double",
                        "defaultValue" : 1.0,
                        "interp" : "linr"
                      },
                      "cursorOpacity" : {
                        "type" : "double",
                        "defaultValue" : 1.0,
                        "interp" : "linr"
                      }
                    },
                    "effects" : [

                    ],
                    "start" : 4506,
                    "duration" : 134,
                    "mediaStart" : 0,
                    "mediaDuration" : 134,
                    "scalar" : 1,
                    "metadata" : {
                      "AutoAppliedSmartFocus" : "False",
                      "WinSubProjectDisplayName" : "",
                      "clipSpeedAttribute" : false
                    },
                    "animationTracks" : {
                      "visual" : [
                        {
                          "range" : [ -30, 30]
                        }
                      ]
                    }
                  },
                  {
                    "id" : 69,
                    "_type" : "ScreenVMFile",
                    "src" : 14,
                    "trackNumber" : 0,
                    "attributes" : {
                      "ident" : "Rec 12-20-20 16"
                    },
                    "parameters" : {
                      "scale0" : {
                        "type" : "double",
                        "defaultValue" : 1.0,
                        "interp" : "eioe",
                        "keyframes" : [
                          {
                            "time" : -30,
                            "value" : 1.28461538461538,
                            "duration" : 30
                          }
                        ]
                      },
                      "scale1" : {
                        "type" : "double",
                        "defaultValue" : 1.0,
                        "interp" : "eioe",
                        "keyframes" : [
                          {
                            "time" : -30,
                            "value" : 1.28461538461538,
                            "duration" : 30
                          }
                        ]
                      },
                      "cursorScale" : {
                        "type" : "double",
                        "defaultValue" : 1.0,
                        "interp" : "linr"
                      },
                      "cursorOpacity" : {
                        "type" : "double",
                        "defaultValue" : 1.0,
                        "interp" : "linr"
                      }
                    },
                    "effects" : [

                    ],
                    "start" : 4640,
                    "duration" : 102,
                    "mediaStart" : 0,
                    "mediaDuration" : 102,
                    "scalar" : 1,
                    "metadata" : {
                      "AutoAppliedSmartFocus" : "False",
                      "WinSubProjectDisplayName" : "",
                      "clipSpeedAttribute" : false,
                      "default-scale0" : 1.0,
                      "default-scale1" : 1.0
                    },
                    "animationTracks" : {
                      "visual" : [
                        {
                          "range" : [ -30, 30]
                        }
                      ]
                    }
                  },
                  {
                    "id" : 70,
                    "_type" : "ScreenVMFile",
                    "src" : 15,
                    "trackNumber" : 0,
                    "attributes" : {
                      "ident" : "Rec 12-20-20 17"
                    },
                    "parameters" : {
                      "scale0" : {
                        "type" : "double",
                        "defaultValue" : 1.0,
                        "interp" : "eioe",
                        "keyframes" : [
                          {
                            "time" : -30,
                            "value" : 1.28461538461538,
                            "duration" : 30
                          }
                        ]
                      },
                      "scale1" : {
                        "type" : "double",
                        "defaultValue" : 1.0,
                        "interp" : "eioe",
                        "keyframes" : [
                          {
                            "time" : -30,
                            "value" : 1.28461538461538,
                            "duration" : 30
                          }
                        ]
                      },
                      "cursorScale" : {
                        "type" : "double",
                        "defaultValue" : 1.0,
                        "interp" : "linr"
                      },
                      "cursorOpacity" : {
                        "type" : "double",
                        "defaultValue" : 1.0,
                        "interp" : "linr"
                      }
                    },
                    "effects" : [

                    ],
                    "start" : 4742,
                    "duration" : 110,
                    "mediaStart" : 0,
                    "mediaDuration" : 110,
                    "scalar" : 1,
                    "metadata" : {
                      "AutoAppliedSmartFocus" : "False",
                      "WinSubProjectDisplayName" : "",
                      "clipSpeedAttribute" : false,
                      "default-scale0" : 1.0,
                      "default-scale1" : 1.0
                    },
                    "animationTracks" : {
                      "visual" : [
                        {
                          "range" : [ -30, 30]
                        }
                      ]
                    }
                  },
                  {
                    "id" : 71,
                    "_type" : "ScreenVMFile",
                    "src" : 21,
                    "trackNumber" : 0,
                    "attributes" : {
                      "ident" : "Rec 12-20-20 23"
                    },
                    "parameters" : {
                      "scale0" : {
                        "type" : "double",
                        "defaultValue" : 1.0,
                        "interp" : "eioe",
                        "keyframes" : [
                          {
                            "time" : -30,
                            "value" : 1.28461538461538,
                            "duration" : 30
                          }
                        ]
                      },
                      "scale1" : {
                        "type" : "double",
                        "defaultValue" : 1.0,
                        "interp" : "eioe",
                        "keyframes" : [
                          {
                            "time" : -30,
                            "value" : 1.28461538461538,
                            "duration" : 30
                          }
                        ]
                      },
                      "cursorScale" : {
                        "type" : "double",
                        "defaultValue" : 1.0,
                        "interp" : "linr"
                      },
                      "cursorOpacity" : {
                        "type" : "double",
                        "defaultValue" : 1.0,
                        "interp" : "linr"
                      }
                    },
                    "effects" : [

                    ],
                    "start" : 4852,
                    "duration" : 116,
                    "mediaStart" : 0,
                    "mediaDuration" : 116,
                    "scalar" : 1,
                    "metadata" : {
                      "AutoAppliedSmartFocus" : "False",
                      "WinSubProjectDisplayName" : "",
                      "clipSpeedAttribute" : false,
                      "default-scale0" : 1.0,
                      "default-scale1" : 1.0
                    },
                    "animationTracks" : {
                      "visual" : [
                        {
                          "range" : [ -30, 30]
                        }
                      ]
                    }
                  },
                  {
                    "id" : 72,
                    "_type" : "ScreenVMFile",
                    "src" : 22,
                    "trackNumber" : 0,
                    "attributes" : {
                      "ident" : "Rec 12-20-20 24"
                    },
                    "parameters" : {
                      "scale0" : {
                        "type" : "double",
                        "defaultValue" : 1.0,
                        "interp" : "eioe",
                        "keyframes" : [
                          {
                            "time" : -30,
                            "value" : 1.28461538461538,
                            "duration" : 30
                          }
                        ]
                      },
                      "scale1" : {
                        "type" : "double",
                        "defaultValue" : 1.0,
                        "interp" : "eioe",
                        "keyframes" : [
                          {
                            "time" : -30,
                            "value" : 1.28461538461538,
                            "duration" : 30
                          }
                        ]
                      },
                      "cursorScale" : {
                        "type" : "double",
                        "defaultValue" : 1.0,
                        "interp" : "linr"
                      },
                      "cursorOpacity" : {
                        "type" : "double",
                        "defaultValue" : 1.0,
                        "interp" : "linr"
                      }
                    },
                    "effects" : [

                    ],
                    "start" : 4968,
                    "duration" : 108,
                    "mediaStart" : 0,
                    "mediaDuration" : 108,
                    "scalar" : 1,
                    "metadata" : {
                      "AutoAppliedSmartFocus" : "False",
                      "WinSubProjectDisplayName" : "",
                      "clipSpeedAttribute" : false,
                      "default-scale0" : 1.0,
                      "default-scale1" : 1.0
                    },
                    "animationTracks" : {
                      "visual" : [
                        {
                          "range" : [ -30, 30]
                        }
                      ]
                    }
                  },
                  {
                    "id" : 73,
                    "_type" : "ScreenVMFile",
                    "src" : 23,
                    "trackNumber" : 0,
                    "attributes" : {
                      "ident" : "Rec 12-20-20 25"
                    },
                    "parameters" : {
                      "scale0" : {
                        "type" : "double",
                        "defaultValue" : 1.0,
                        "interp" : "eioe",
                        "keyframes" : [
                          {
                            "time" : -30,
                            "value" : 1.28461538461538,
                            "duration" : 30
                          }
                        ]
                      },
                      "scale1" : {
                        "type" : "double",
                        "defaultValue" : 1.0,
                        "interp" : "eioe",
                        "keyframes" : [
                          {
                            "time" : -30,
                            "value" : 1.28461538461538,
                            "duration" : 30
                          }
                        ]
                      },
                      "cursorScale" : {
                        "type" : "double",
                        "defaultValue" : 1.0,
                        "interp" : "linr"
                      },
                      "cursorOpacity" : {
                        "type" : "double",
                        "defaultValue" : 1.0,
                        "interp" : "linr"
                      }
                    },
                    "effects" : [

                    ],
                    "start" : 5076,
                    "duration" : 116,
                    "mediaStart" : 0,
                    "mediaDuration" : 116,
                    "scalar" : 1,
                    "metadata" : {
                      "AutoAppliedSmartFocus" : "False",
                      "WinSubProjectDisplayName" : "",
                      "clipSpeedAttribute" : false,
                      "default-scale0" : 1.0,
                      "default-scale1" : 1.0
                    },
                    "animationTracks" : {
                      "visual" : [
                        {
                          "range" : [ -30, 30]
                        }
                      ]
                    }
                  },
                  {
                    "id" : 74,
                    "_type" : "ScreenVMFile",
                    "src" : 24,
                    "trackNumber" : 0,
                    "attributes" : {
                      "ident" : "Rec 12-20-20 26"
                    },
                    "parameters" : {
                      "scale0" : {
                        "type" : "double",
                        "defaultValue" : 1.0,
                        "interp" : "eioe",
                        "keyframes" : [
                          {
                            "time" : -30,
                            "value" : 1.28461538461538,
                            "duration" : 30
                          }
                        ]
                      },
                      "scale1" : {
                        "type" : "double",
                        "defaultValue" : 1.0,
                        "interp" : "eioe",
                        "keyframes" : [
                          {
                            "time" : -30,
                            "value" : 1.28461538461538,
                            "duration" : 30
                          }
                        ]
                      },
                      "cursorScale" : {
                        "type" : "double",
                        "defaultValue" : 1.0,
                        "interp" : "linr"
                      },
                      "cursorOpacity" : {
                        "type" : "double",
                        "defaultValue" : 1.0,
                        "interp" : "linr"
                      }
                    },
                    "effects" : [

                    ],
                    "start" : 5192,
                    "duration" : 110,
                    "mediaStart" : 0,
                    "mediaDuration" : 110,
                    "scalar" : 1,
                    "metadata" : {
                      "AutoAppliedSmartFocus" : "False",
                      "WinSubProjectDisplayName" : "",
                      "clipSpeedAttribute" : false,
                      "default-scale0" : 1.0,
                      "default-scale1" : 1.0
                    },
                    "animationTracks" : {
                      "visual" : [
                        {
                          "range" : [ -30, 30]
                        }
                      ]
                    }
                  },
                  {
                    "id" : 75,
                    "_type" : "ScreenVMFile",
                    "src" : 25,
                    "trackNumber" : 0,
                    "attributes" : {
                      "ident" : "Rec 12-20-20 27"
                    },
                    "parameters" : {
                      "scale0" : {
                        "type" : "double",
                        "defaultValue" : 1.0,
                        "interp" : "eioe",
                        "keyframes" : [
                          {
                            "time" : -30,
                            "value" : 1.28461538461538,
                            "duration" : 30
                          }
                        ]
                      },
                      "scale1" : {
                        "type" : "double",
                        "defaultValue" : 1.0,
                        "interp" : "eioe",
                        "keyframes" : [
                          {
                            "time" : -30,
                            "value" : 1.28461538461538,
                            "duration" : 30
                          }
                        ]
                      },
                      "cursorScale" : {
                        "type" : "double",
                        "defaultValue" : 1.0,
                        "interp" : "linr"
                      },
                      "cursorOpacity" : {
                        "type" : "double",
                        "defaultValue" : 1.0,
                        "interp" : "linr"
                      }
                    },
                    "effects" : [

                    ],
                    "start" : 5302,
                    "duration" : 118,
                    "mediaStart" : 0,
                    "mediaDuration" : 118,
                    "scalar" : 1,
                    "metadata" : {
                      "AutoAppliedSmartFocus" : "False",
                      "WinSubProjectDisplayName" : "",
                      "clipSpeedAttribute" : false,
                      "default-scale0" : 1.0,
                      "default-scale1" : 1.0
                    },
                    "animationTracks" : {
                      "visual" : [
                        {
                          "range" : [ -30, 30]
                        }
                      ]
                    }
                  },
                  {
                    "id" : 76,
                    "_type" : "ScreenVMFile",
                    "src" : 26,
                    "trackNumber" : 0,
                    "attributes" : {
                      "ident" : "Rec 12-20-20 28"
                    },
                    "parameters" : {
                      "scale0" : {
                        "type" : "double",
                        "defaultValue" : 1.0,
                        "interp" : "eioe",
                        "keyframes" : [
                          {
                            "time" : -30,
                            "value" : 1.28461538461538,
                            "duration" : 30
                          }
                        ]
                      },
                      "scale1" : {
                        "type" : "double",
                        "defaultValue" : 1.0,
                        "interp" : "eioe",
                        "keyframes" : [
                          {
                            "time" : -30,
                            "value" : 1.28461538461538,
                            "duration" : 30
                          }
                        ]
                      },
                      "cursorScale" : {
                        "type" : "double",
                        "defaultValue" : 1.0,
                        "interp" : "linr"
                      },
                      "cursorOpacity" : {
                        "type" : "double",
                        "defaultValue" : 1.0,
                        "interp" : "linr"
                      }
                    },
                    "effects" : [

                    ],
                    "start" : 5420,
                    "duration" : 112,
                    "mediaStart" : 0,
                    "mediaDuration" : 112,
                    "scalar" : 1,
                    "metadata" : {
                      "AutoAppliedSmartFocus" : "False",
                      "WinSubProjectDisplayName" : "",
                      "clipSpeedAttribute" : false,
                      "default-scale0" : 1.0,
                      "default-scale1" : 1.0
                    },
                    "animationTracks" : {
                      "visual" : [
                        {
                          "range" : [ -30, 30]
                        }
                      ]
                    }
                  },
                  {
                    "id" : 77,
                    "_type" : "ScreenVMFile",
                    "src" : 27,
                    "trackNumber" : 0,
                    "attributes" : {
                      "ident" : "Rec 12-20-20 29"
                    },
                    "parameters" : {
                      "scale0" : {
                        "type" : "double",
                        "defaultValue" : 1.0,
                        "interp" : "eioe",
                        "keyframes" : [
                          {
                            "time" : -30,
                            "value" : 1.28461538461538,
                            "duration" : 30
                          }
                        ]
                      },
                      "scale1" : {
                        "type" : "double",
                        "defaultValue" : 1.0,
                        "interp" : "eioe",
                        "keyframes" : [
                          {
                            "time" : -30,
                            "value" : 1.28461538461538,
                            "duration" : 30
                          }
                        ]
                      },
                      "cursorScale" : {
                        "type" : "double",
                        "defaultValue" : 1.0,
                        "interp" : "linr"
                      },
                      "cursorOpacity" : {
                        "type" : "double",
                        "defaultValue" : 1.0,
                        "interp" : "linr"
                      }
                    },
                    "effects" : [

                    ],
                    "start" : 5532,
                    "duration" : 116,
                    "mediaStart" : 0,
                    "mediaDuration" : 116,
                    "scalar" : 1,
                    "metadata" : {
                      "AutoAppliedSmartFocus" : "False",
                      "WinSubProjectDisplayName" : "",
                      "clipSpeedAttribute" : false,
                      "default-scale0" : 1.0,
                      "default-scale1" : 1.0
                    },
                    "animationTracks" : {
                      "visual" : [
                        {
                          "range" : [ -30, 30]
                        }
                      ]
                    }
                  },
                  {
                    "id" : 78,
                    "_type" : "ScreenVMFile",
                    "src" : 28,
                    "trackNumber" : 0,
                    "attributes" : {
                      "ident" : "Rec 12-20-20 30"
                    },
                    "parameters" : {
                      "scale0" : {
                        "type" : "double",
                        "defaultValue" : 1.0,
                        "interp" : "eioe",
                        "keyframes" : [
                          {
                            "time" : -30,
                            "value" : 1.28461538461538,
                            "duration" : 30
                          }
                        ]
                      },
                      "scale1" : {
                        "type" : "double",
                        "defaultValue" : 1.0,
                        "interp" : "eioe",
                        "keyframes" : [
                          {
                            "time" : -30,
                            "value" : 1.28461538461538,
                            "duration" : 30
                          }
                        ]
                      },
                      "cursorScale" : {
                        "type" : "double",
                        "defaultValue" : 1.0,
                        "interp" : "linr"
                      },
                      "cursorOpacity" : {
                        "type" : "double",
                        "defaultValue" : 1.0,
                        "interp" : "linr"
                      }
                    },
                    "effects" : [

                    ],
                    "start" : 5648,
                    "duration" : 118,
                    "mediaStart" : 0,
                    "mediaDuration" : 118,
                    "scalar" : 1,
                    "metadata" : {
                      "AutoAppliedSmartFocus" : "False",
                      "WinSubProjectDisplayName" : "",
                      "clipSpeedAttribute" : false,
                      "default-scale0" : 1.0,
                      "default-scale1" : 1.0
                    },
                    "animationTracks" : {
                      "visual" : [
                        {
                          "range" : [ -30, 30]
                        }
                      ]
                    }
                  },
                  {
                    "id" : 79,
                    "_type" : "ScreenVMFile",
                    "src" : 29,
                    "trackNumber" : 0,
                    "attributes" : {
                      "ident" : "Rec 12-20-20 31"
                    },
                    "parameters" : {
                      "scale0" : {
                        "type" : "double",
                        "defaultValue" : 1.0,
                        "interp" : "eioe",
                        "keyframes" : [
                          {
                            "time" : -30,
                            "value" : 1.28461538461538,
                            "duration" : 30
                          }
                        ]
                      },
                      "scale1" : {
                        "type" : "double",
                        "defaultValue" : 1.0,
                        "interp" : "eioe",
                        "keyframes" : [
                          {
                            "time" : -30,
                            "value" : 1.28461538461538,
                            "duration" : 30
                          }
                        ]
                      },
                      "cursorScale" : {
                        "type" : "double",
                        "defaultValue" : 1.0,
                        "interp" : "linr"
                      },
                      "cursorOpacity" : {
                        "type" : "double",
                        "defaultValue" : 1.0,
                        "interp" : "linr"
                      }
                    },
                    "effects" : [

                    ],
                    "start" : 5766,
                    "duration" : 116,
                    "mediaStart" : 0,
                    "mediaDuration" : 116,
                    "scalar" : 1,
                    "metadata" : {
                      "AutoAppliedSmartFocus" : "False",
                      "WinSubProjectDisplayName" : "",
                      "clipSpeedAttribute" : false,
                      "default-scale0" : 1.0,
                      "default-scale1" : 1.0
                    },
                    "animationTracks" : {
                      "visual" : [
                        {
                          "range" : [ -30, 30]
                        }
                      ]
                    }
                  },
                  {
                    "id" : 80,
                    "_type" : "ScreenVMFile",
                    "src" : 30,
                    "trackNumber" : 0,
                    "attributes" : {
                      "ident" : "Rec 12-20-20 32"
                    },
                    "parameters" : {
                      "scale0" : {
                        "type" : "double",
                        "defaultValue" : 1.0,
                        "interp" : "eioe",
                        "keyframes" : [
                          {
                            "time" : -30,
                            "value" : 1.28461538461538,
                            "duration" : 30
                          }
                        ]
                      },
                      "scale1" : {
                        "type" : "double",
                        "defaultValue" : 1.0,
                        "interp" : "eioe",
                        "keyframes" : [
                          {
                            "time" : -30,
                            "value" : 1.28461538461538,
                            "duration" : 30
                          }
                        ]
                      },
                      "cursorScale" : {
                        "type" : "double",
                        "defaultValue" : 1.0,
                        "interp" : "linr"
                      },
                      "cursorOpacity" : {
                        "type" : "double",
                        "defaultValue" : 1.0,
                        "interp" : "linr"
                      }
                    },
                    "effects" : [

                    ],
                    "start" : 5882,
                    "duration" : 118,
                    "mediaStart" : 0,
                    "mediaDuration" : 118,
                    "scalar" : 1,
                    "metadata" : {
                      "AutoAppliedSmartFocus" : "False",
                      "WinSubProjectDisplayName" : "",
                      "clipSpeedAttribute" : false,
                      "default-scale0" : 1.0,
                      "default-scale1" : 1.0
                    },
                    "animationTracks" : {
                      "visual" : [
                        {
                          "range" : [ -30, 30]
                        }
                      ]
                    }
                  },
                  {
                    "id" : 81,
                    "_type" : "ScreenVMFile",
                    "src" : 31,
                    "trackNumber" : 0,
                    "attributes" : {
                      "ident" : "Rec 12-20-20 33"
                    },
                    "parameters" : {
                      "scale0" : {
                        "type" : "double",
                        "defaultValue" : 0.948863636363636,
                        "interp" : "eioe"
                      },
                      "scale1" : {
                        "type" : "double",
                        "defaultValue" : 0.948863636363636,
                        "interp" : "eioe"
                      },
                      "cursorScale" : {
                        "type" : "double",
                        "defaultValue" : 1.0,
                        "interp" : "linr"
                      },
                      "cursorOpacity" : {
                        "type" : "double",
                        "defaultValue" : 1.0,
                        "interp" : "linr"
                      }
                    },
                    "effects" : [

                    ],
                    "start" : 6000,
                    "duration" : 108,
                    "mediaStart" : 0,
                    "mediaDuration" : 108,
                    "scalar" : 1,
                    "metadata" : {
                      "AutoAppliedSmartFocus" : "False",
                      "WinSubProjectDisplayName" : "",
                      "clipSpeedAttribute" : false
                    },
                    "animationTracks" : {
                      "visual" : [
                        {
                          "range" : [ -30, 30]
                        }
                      ]
                    }
                  },
                  {
                    "id" : 82,
                    "_type" : "ScreenVMFile",
                    "src" : 32,
                    "trackNumber" : 0,
                    "attributes" : {
                      "ident" : "Rec 12-20-20 34"
                    },
                    "parameters" : {
                      "scale0" : {
                        "type" : "double",
                        "defaultValue" : 0.948863636363636,
                        "interp" : "eioe"
                      },
                      "scale1" : {
                        "type" : "double",
                        "defaultValue" : 0.948863636363636,
                        "interp" : "eioe"
                      },
                      "cursorScale" : {
                        "type" : "double",
                        "defaultValue" : 1.0,
                        "interp" : "linr"
                      },
                      "cursorOpacity" : {
                        "type" : "double",
                        "defaultValue" : 1.0,
                        "interp" : "linr"
                      }
                    },
                    "effects" : [

                    ],
                    "start" : 6108,
                    "duration" : 208,
                    "mediaStart" : 0,
                    "mediaDuration" : 208,
                    "scalar" : 1,
                    "metadata" : {
                      "AutoAppliedSmartFocus" : "False",
                      "WinSubProjectDisplayName" : "",
                      "clipSpeedAttribute" : false
                    },
                    "animationTracks" : {

                    }
                  },
                  {
                    "id" : 83,
                    "_type" : "ScreenVMFile",
                    "src" : 33,
                    "trackNumber" : 0,
                    "attributes" : {
                      "ident" : "Rec 12-20-20 35"
                    },
                    "parameters" : {
                      "scale0" : {
                        "type" : "double",
                        "defaultValue" : 0.948863636363636,
                        "interp" : "eioe"
                      },
                      "scale1" : {
                        "type" : "double",
                        "defaultValue" : 0.948863636363636,
                        "interp" : "eioe"
                      },
                      "cursorScale" : {
                        "type" : "double",
                        "defaultValue" : 1.0,
                        "interp" : "linr"
                      },
                      "cursorOpacity" : {
                        "type" : "double",
                        "defaultValue" : 1.0,
                        "interp" : "linr"
                      }
                    },
                    "effects" : [

                    ],
                    "start" : 6316,
                    "duration" : 186,
                    "mediaStart" : 0,
                    "mediaDuration" : 186,
                    "scalar" : 1,
                    "metadata" : {
                      "AutoAppliedSmartFocus" : "False",
                      "WinSubProjectDisplayName" : "",
                      "clipSpeedAttribute" : false
                    },
                    "animationTracks" : {

                    }
                  },
                  {
                    "id" : 84,
                    "_type" : "ScreenVMFile",
                    "src" : 34,
                    "trackNumber" : 0,
                    "attributes" : {
                      "ident" : "Rec 12-20-20 37"
                    },
                    "parameters" : {
                      "scale0" : {
                        "type" : "double",
                        "defaultValue" : 0.948863636363636,
                        "interp" : "eioe"
                      },
                      "scale1" : {
                        "type" : "double",
                        "defaultValue" : 0.948863636363636,
                        "interp" : "eioe"
                      },
                      "cursorScale" : {
                        "type" : "double",
                        "defaultValue" : 1.0,
                        "interp" : "linr"
                      },
                      "cursorOpacity" : {
                        "type" : "double",
                        "defaultValue" : 1.0,
                        "interp" : "linr"
                      }
                    },
                    "effects" : [

                    ],
                    "start" : 6502,
                    "duration" : 270,
                    "mediaStart" : 0,
                    "mediaDuration" : 270,
                    "scalar" : 1,
                    "metadata" : {
                      "AutoAppliedSmartFocus" : "False",
                      "WinSubProjectDisplayName" : "",
                      "clipSpeedAttribute" : false
                    },
                    "animationTracks" : {

                    }
                  },
                  {
                    "id" : 85,
                    "_type" : "ScreenVMFile",
                    "src" : 36,
                    "trackNumber" : 0,
                    "attributes" : {
                      "ident" : "Rec 12-20-20 40"
                    },
                    "parameters" : {
                      "translation0" : {
                        "type" : "double",
                        "defaultValue" : 122.000000000217,
                        "interp" : "eioe",
                        "keyframes" : [
                          {
                            "time" : 165,
                            "value" : 8.63840200989173,
                            "duration" : 77
                          }
                        ]
                      },
                      "translation1" : {
                        "type" : "double",
                        "defaultValue" : 0.0,
                        "interp" : "eioe",
                        "keyframes" : [
                          {
                            "time" : 165,
                            "value" : -9.12567976917575,
                            "duration" : 77
                          }
                        ]
                      },
                      "scale0" : {
                        "type" : "double",
                        "defaultValue" : 0.942386831275598,
                        "interp" : "eioe",
                        "keyframes" : [
                          {
                            "time" : 165,
                            "value" : 1.2707672706407,
                            "duration" : 77
                          }
                        ]
                      },
                      "scale1" : {
                        "type" : "double",
                        "defaultValue" : 0.942386831275597,
                        "interp" : "eioe",
                        "keyframes" : [
                          {
                            "time" : 165,
                            "value" : 1.27076742075718,
                            "duration" : 77
                          }
                        ]
                      },
                      "cursorScale" : {
                        "type" : "double",
                        "defaultValue" : 1.0,
                        "interp" : "linr"
                      },
                      "cursorOpacity" : {
                        "type" : "double",
                        "defaultValue" : 1.0,
                        "interp" : "linr"
                      }
                    },
                    "effects" : [

                    ],
                    "start" : 6772,
                    "duration" : 468,
                    "mediaStart" : 0,
                    "mediaDuration" : 468,
                    "scalar" : 1,
                    "metadata" : {
                      "AutoAppliedSmartFocus" : "False",
                      "WinSubProjectDisplayName" : "",
                      "clipSpeedAttribute" : false,
                      "default-scale0" : 1.0,
                      "default-scale1" : 1.0,
                      "default-translation0" : 0.0,
                      "default-translation1" : 0.0
                    },
                    "animationTracks" : {
                      "visual" : [
                        {
                          "range" : [ 165, 77]
                        }
                      ]
                    }
                  },
                  {
                    "id" : 86,
                    "_type" : "ScreenVMFile",
                    "src" : 35,
                    "trackNumber" : 0,
                    "attributes" : {
                      "ident" : "Rec 12-20-20 38"
                    },
                    "parameters" : {
                      "scale0" : {
                        "type" : "double",
                        "defaultValue" : 0.948863636363636,
                        "interp" : "eioe"
                      },
                      "scale1" : {
                        "type" : "double",
                        "defaultValue" : 0.948863636363636,
                        "interp" : "eioe"
                      },
                      "cursorScale" : {
                        "type" : "double",
                        "defaultValue" : 1.0,
                        "interp" : "linr"
                      },
                      "cursorOpacity" : {
                        "type" : "double",
                        "defaultValue" : 1.0,
                        "interp" : "linr"
                      }
                    },
                    "effects" : [

                    ],
                    "start" : 7240,
                    "duration" : 132,
                    "mediaStart" : 0,
                    "mediaDuration" : 132,
                    "scalar" : 1,
                    "metadata" : {
                      "AutoAppliedSmartFocus" : "False",
                      "WinSubProjectDisplayName" : "",
                      "clipSpeedAttribute" : false
                    },
                    "animationTracks" : {

                    }
                  }
                ],
                "transitions" : [
                  {
                    "name" : "Ripple",
                    "duration" : 15,
                    "useAudioPreRoll" : true,
                    "useVisualPreRoll" : true,
                    "leftMedia" : 40,
                    "rightMedia" : 41
                  },
                  {
                    "name" : "RadialBlur",
                    "duration" : 15,
                    "useAudioPreRoll" : true,
                    "useVisualPreRoll" : true,
                    "leftMedia" : 41,
                    "rightMedia" : 42
                  },
                  {
                    "name" : "SlideRight",
                    "duration" : 15,
                    "useAudioPreRoll" : true,
                    "useVisualPreRoll" : true,
                    "leftMedia" : 42,
                    "rightMedia" : 43
                  },
                  {
                    "name" : "FadeThroughBlack",
                    "duration" : 15,
                    "useAudioPreRoll" : true,
                    "useVisualPreRoll" : true,
                    "leftMedia" : 43,
                    "rightMedia" : 47
                  },
                  {
                    "name" : "Fade",
                    "duration" : 15,
                    "useAudioPreRoll" : true,
                    "useVisualPreRoll" : true,
                    "leftMedia" : 47,
                    "rightMedia" : 48
                  },
                  {
                    "name" : "Dissolve",
                    "duration" : 15,
                    "useAudioPreRoll" : true,
                    "useVisualPreRoll" : true,
                    "leftMedia" : 48,
                    "rightMedia" : 49
                  },
                  {
                    "name" : "Pixelate",
                    "duration" : 15,
                    "useAudioPreRoll" : true,
                    "useVisualPreRoll" : true,
                    "leftMedia" : 49,
                    "rightMedia" : 53
                  },
                  {
                    "name" : "CubeRotate",
                    "duration" : 15,
                    "useAudioPreRoll" : true,
                    "useVisualPreRoll" : true,
                    "leftMedia" : 53,
                    "rightMedia" : 54
                  },
                  {
                    "name" : "CubeRotate",
                    "duration" : 15,
                    "useAudioPreRoll" : true,
                    "useVisualPreRoll" : true,
                    "leftMedia" : 54,
                    "rightMedia" : 55
                  },
                  {
                    "name" : "CubeRotate",
                    "duration" : 15,
                    "useAudioPreRoll" : true,
                    "useVisualPreRoll" : true,
                    "leftMedia" : 55,
                    "rightMedia" : 56
                  },
                  {
                    "name" : "CubeRotate",
                    "duration" : 15,
                    "useAudioPreRoll" : true,
                    "useVisualPreRoll" : true,
                    "leftMedia" : 56,
                    "rightMedia" : 57
                  },
                  {
                    "name" : "FadeThroughBlack",
                    "duration" : 15,
                    "useAudioPreRoll" : true,
                    "useVisualPreRoll" : true,
                    "leftMedia" : 57,
                    "rightMedia" : 58
                  },
                  {
                    "name" : "Fade",
                    "duration" : 15,
                    "useAudioPreRoll" : true,
                    "useVisualPreRoll" : true,
                    "leftMedia" : 58,
                    "rightMedia" : 62
                  },
                  {
                    "name" : "Fade",
                    "duration" : 15,
                    "useAudioPreRoll" : true,
                    "useVisualPreRoll" : true,
                    "leftMedia" : 62,
                    "rightMedia" : 63
                  },
                  {
                    "name" : "Fade",
                    "duration" : 15,
                    "useAudioPreRoll" : true,
                    "useVisualPreRoll" : true,
                    "leftMedia" : 63,
                    "rightMedia" : 64
                  },
                  {
                    "name" : "Fade",
                    "duration" : 15,
                    "useAudioPreRoll" : true,
                    "useVisualPreRoll" : true,
                    "leftMedia" : 64,
                    "rightMedia" : 65
                  },
                  {
                    "name" : "Fade",
                    "duration" : 15,
                    "useAudioPreRoll" : true,
                    "useVisualPreRoll" : true,
                    "leftMedia" : 65,
                    "rightMedia" : 66
                  },
                  {
                    "name" : "Fade",
                    "duration" : 15,
                    "useAudioPreRoll" : true,
                    "useVisualPreRoll" : true,
                    "leftMedia" : 66,
                    "rightMedia" : 67
                  },
                  {
                    "name" : "PageRoll",
                    "duration" : 15,
                    "useAudioPreRoll" : true,
                    "useVisualPreRoll" : true,
                    "leftMedia" : 67,
                    "rightMedia" : 68
                  },
                  {
                    "name" : "Glow",
                    "duration" : 15,
                    "useAudioPreRoll" : true,
                    "useVisualPreRoll" : true,
                    "leftMedia" : 68,
                    "rightMedia" : 69
                  },
                  {
                    "name" : "Fade",
                    "duration" : 15,
                    "useAudioPreRoll" : true,
                    "useVisualPreRoll" : true,
                    "leftMedia" : 69,
                    "rightMedia" : 70
                  },
                  {
                    "name" : "Fade",
                    "duration" : 15,
                    "useAudioPreRoll" : true,
                    "useVisualPreRoll" : true,
                    "leftMedia" : 70,
                    "rightMedia" : 71
                  },
                  {
                    "name" : "Fade",
                    "duration" : 15,
                    "useAudioPreRoll" : true,
                    "useVisualPreRoll" : true,
                    "leftMedia" : 71,
                    "rightMedia" : 72
                  },
                  {
                    "name" : "Fade",
                    "duration" : 15,
                    "useAudioPreRoll" : true,
                    "useVisualPreRoll" : true,
                    "leftMedia" : 72,
                    "rightMedia" : 73
                  },
                  {
                    "name" : "Fade",
                    "duration" : 15,
                    "useAudioPreRoll" : true,
                    "useVisualPreRoll" : true,
                    "leftMedia" : 73,
                    "rightMedia" : 74
                  },
                  {
                    "name" : "Fade",
                    "duration" : 15,
                    "useAudioPreRoll" : true,
                    "useVisualPreRoll" : true,
                    "leftMedia" : 74,
                    "rightMedia" : 75
                  },
                  {
                    "name" : "Fade",
                    "duration" : 15,
                    "useAudioPreRoll" : true,
                    "useVisualPreRoll" : true,
                    "leftMedia" : 75,
                    "rightMedia" : 76
                  },
                  {
                    "name" : "Fade",
                    "duration" : 15,
                    "useAudioPreRoll" : true,
                    "useVisualPreRoll" : true,
                    "leftMedia" : 76,
                    "rightMedia" : 77
                  },
                  {
                    "name" : "Fade",
                    "duration" : 15,
                    "useAudioPreRoll" : true,
                    "useVisualPreRoll" : true,
                    "leftMedia" : 77,
                    "rightMedia" : 78
                  },
                  {
                    "name" : "Fade",
                    "duration" : 15,
                    "useAudioPreRoll" : true,
                    "useVisualPreRoll" : true,
                    "leftMedia" : 78,
                    "rightMedia" : 79
                  },
                  {
                    "name" : "Fade",
                    "duration" : 15,
                    "useAudioPreRoll" : true,
                    "useVisualPreRoll" : true,
                    "leftMedia" : 79,
                    "rightMedia" : 80
                  },
                  {
                    "name" : "Fade",
                    "duration" : 15,
                    "useAudioPreRoll" : true,
                    "useVisualPreRoll" : true,
                    "leftMedia" : 80,
                    "rightMedia" : 81
                  },
                  {
                    "name" : "PageTurn",
                    "duration" : 15,
                    "useAudioPreRoll" : true,
                    "useVisualPreRoll" : true,
                    "leftMedia" : 81,
                    "rightMedia" : 82
                  },
                  {
                    "name" : "CubeRotate",
                    "duration" : 15,
                    "useAudioPreRoll" : true,
                    "useVisualPreRoll" : true,
                    "leftMedia" : 82,
                    "rightMedia" : 83
                  },
                  {
                    "name" : "CubeRotate",
                    "duration" : 15,
                    "useAudioPreRoll" : true,
                    "useVisualPreRoll" : true,
                    "leftMedia" : 83,
                    "rightMedia" : 84
                  },
                  {
                    "name" : "Stretch",
                    "duration" : 15,
                    "useAudioPreRoll" : true,
                    "useVisualPreRoll" : true,
                    "leftMedia" : 84,
                    "rightMedia" : 85
                  },
                  {
                    "name" : "Pixelate",
                    "duration" : 15,
                    "useAudioPreRoll" : true,
                    "useVisualPreRoll" : true,
                    "leftMedia" : 85,
                    "rightMedia" : 86
                  }
                ]
              },
              {
                "trackIndex" : 1,
                "medias" : [
                  {
                    "id" : 87,
                    "_type" : "Callout",
                    "def" : {
                      "kind" : "remix",
                      "shape" : "speech-bubble",
                      "style" : "bold",
                      "fill-color-blue" : 0.109803921568627,
                      "fill-color-green" : 0.274509803921569,
                      "fill-color-opacity" : 1.0,
                      "fill-color-red" : 0.898039215686275,
                      "height" : 250.0,
                      "stroke-color-blue" : 1.0,
                      "stroke-color-green" : 1.0,
                      "stroke-color-opacity" : 1.0,
                      "stroke-color-red" : 1.0,
                      "stroke-width" : 0.0,
                      "tail-x" : 200.0,
                      "tail-y" : -200.0,
                      "width" : 250.0,
                      "word-wrap" : 1.0,
                      "fill-style" : "solid",
                      "horizontal-alignment" : "center",
                      "stroke-style" : "solid",
                      "text" : "Some statistics about the Numerical features",
                      "vertical-alignment" : "center",
                      "font" : {
                        "color-blue" : 1.0,
                        "color-green" : 1.0,
                        "color-red" : 1.0,
                        "size" : 70.0,
                        "tracking" : 0.0,
                        "name" : "Source Sans Pro",
                        "weight" : "Semi Bold"
                      },
                      "textAttributes" : {
                        "type" : "textAttributeList",
                        "keyframes" : [
                          {
                            "time" : 0,
                            "value" : [{"name":"fontSize","rangeEnd":44,"rangeStart":0,"value":70,"valueType":"double"},{"name":"fontName","rangeEnd":44,"rangeStart":0,"value":"Source Sans Pro","valueType":"string"},{"name":"fgColor","rangeEnd":44,"rangeStart":0,"value":"(255,255,255,255)","valueType":"color"},{"name":"fontItalic","rangeEnd":44,"rangeStart":0,"value":0,"valueType":"int"},{"name":"underline","rangeEnd":44,"rangeStart":0,"value":0,"valueType":"int"},{"name":"fontWeight","rangeEnd":44,"rangeStart":0,"value":100,"valueType":"int"},{"name":"strikethrough","rangeEnd":44,"rangeStart":0,"value":0,"valueType":"int"}],
                            "duration" : 0
                          }
                        ]
                      }
                    },
                    "attributes" : {
                      "autoRotateText" : true
                    },
                    "parameters" : {
                      "translation0" : -390.588235294301,
                      "translation1" : 3.36797256750287e-11
                    },
                    "effects" : [
                        {
                          "effectName" : "DropShadow",
                          "parameters" : {
                            "angle" : 5.49778714378214,
                            "blur" : 10.0,
                            "color-alpha" : 1.0,
                            "color-blue" : 0.1216,
                            "color-green" : 0.1216,
                            "color-red" : 0.1216,
                            "enabled" : 1,
                            "offset" : 10.0,
                            "opacity" : 0.4
                          }
                        }
                    ],
                    "start" : 1217,
                    "duration" : 105,
                    "mediaStart" : -38,
                    "mediaDuration" : 105,
                    "scalar" : 1,
                    "metadata" : {
                      "WinSubProjectDisplayName" : "",
                      "clipSpeedAttribute" : false,
                      "default-HAlign" : "center",
                      "default-VAlign" : "center",
                      "default-text-attributes" : null,
                      "default-translation0" : 0.0,
                      "default-translation1" : 0.0
                    },
                    "animationTracks" : {

                    }
                  },
                  {
                    "id" : 88,
                    "_type" : "Callout",
                    "def" : {
                      "kind" : "remix",
                      "shape" : "arrow",
                      "style" : "basic",
                      "stroke-color-blue" : 0.56078431372549,
                      "stroke-color-green" : 0.686274509803922,
                      "stroke-color-opacity" : 1.0,
                      "stroke-color-red" : 0.0196078431372549,
                      "stroke-width" : 8.0,
                      "tail-x" : {
                        "type" : "double",
                        "defaultValue" : 153.678571428599,
                        "interp" : "eioe"
                      },
                      "tail-y" : {
                        "type" : "double",
                        "defaultValue" : -33.4000000000038,
                        "interp" : "eioe"
                      },
                      "horizontal-alignment" : "center",
                      "shape-anchor" : "none",
                      "shape-tail" : "arrow",
                      "stroke-style" : "solid",
                      "vertical-alignment" : "center",
                      "textAttributes" : {
                        "type" : "textAttributeList",
                        "keyframes" : [
                          {
                            "time" : 0,
                            "value" : null,
                            "duration" : 0
                          }
                        ]
                      }
                    },
                    "attributes" : {
                      "autoRotateText" : true
                    },
                    "parameters" : {
                      "translation0" : -399.678571428526,
                      "translation1" : 66.8000000000177
                    },
                    "effects" : [
                        {
                          "effectName" : "DropShadow",
                          "parameters" : {
                            "angle" : 5.49778714378214,
                            "blur" : 10.0,
                            "color-alpha" : 1.0,
                            "color-blue" : 0.1216,
                            "color-green" : 0.1216,
                            "color-red" : 0.1216,
                            "enabled" : 1,
                            "offset" : 10.0,
                            "opacity" : 0.4
                          }
                        }
                    ],
                    "start" : 1479,
                    "duration" : 91,
                    "mediaStart" : 0,
                    "mediaDuration" : 91,
                    "scalar" : 1,
                    "metadata" : {
                      "WinSubProjectDisplayName" : "",
                      "clipSpeedAttribute" : false,
                      "default-translation0" : 0.0,
                      "default-translation1" : 0.0
                    },
                    "animationTracks" : {

                    }
                  },
                  {
                    "id" : 89,
                    "_type" : "Callout",
                    "def" : {
                      "kind" : "remix",
                      "shape" : "text-rectangle",
                      "style" : "urban",
                      "fill-color-blue" : 0.384313725490196,
                      "fill-color-green" : 0.505882352941176,
                      "fill-color-opacity" : 1.0,
                      "fill-color-red" : 0.96078431372549,
                      "height" : 235.882352941212,
                      "stroke-color-blue" : 1.0,
                      "stroke-color-green" : 1.0,
                      "stroke-color-opacity" : 1.0,
                      "stroke-color-red" : 1.0,
                      "stroke-width" : 3.33333333333333,
                      "tail-x" : 16.7501505721555,
                      "tail-y" : 22.9411764706061,
                      "width" : 316.499698855689,
                      "word-wrap" : 1.0,
                      "fill-style" : "solid",
                      "horizontal-alignment" : "center",
                      "stroke-style" : "solid",
                      "text" : "After removing NaNs.",
                      "vertical-alignment" : "center",
                      "font" : {
                        "color-blue" : 1.0,
                        "color-green" : 1.0,
                        "color-red" : 1.0,
                        "size" : 70.0,
                        "tracking" : 0.0,
                        "name" : "Dosis",
                        "weight" : "Semi Bold"
                      },
                      "textAttributes" : {
                        "type" : "textAttributeList",
                        "keyframes" : [
                          {
                            "time" : 0,
                            "value" : [{"name":"fontName","rangeEnd":20,"rangeStart":0,"value":"Dosis","valueType":"string"},{"name":"underline","rangeEnd":20,"rangeStart":0,"value":0,"valueType":"int"},{"name":"strikethrough","rangeEnd":20,"rangeStart":0,"value":0,"valueType":"int"},{"name":"fontItalic","rangeEnd":20,"rangeStart":0,"value":0,"valueType":"int"},{"name":"fontWeight","rangeEnd":20,"rangeStart":0,"value":100,"valueType":"int"},{"name":"fontSize","rangeEnd":20,"rangeStart":0,"value":70,"valueType":"double"},{"name":"fgColor","rangeEnd":20,"rangeStart":0,"value":"(255,255,255,255)","valueType":"color"}],
                            "duration" : 0
                          }
                        ]
                      }
                    },
                    "attributes" : {
                      "autoRotateText" : true
                    },
                    "parameters" : {
                      "translation0" : {
                        "type" : "double",
                        "defaultValue" : -277.222545673411,
                        "keyframes" : [
                          {
                            "time" : 45,
                            "value" : -1191.78175636662,
                            "duration" : 30
                          }
                        ]
                      },
                      "translation1" : {
                        "type" : "double",
                        "defaultValue" : 1.82352941176794,
                        "keyframes" : [
                          {
                            "time" : 45,
                            "value" : -358.728508978847,
                            "duration" : 30
                          }
                        ]
                      },
                      "scale0" : {
                        "type" : "double",
                        "defaultValue" : 1.0,
                        "keyframes" : [
                          {
                            "time" : 45,
                            "value" : 2.1676364158465,
                            "duration" : 30
                          }
                        ]
                      },
                      "scale1" : {
                        "type" : "double",
                        "defaultValue" : 1.0,
                        "keyframes" : [
                          {
                            "time" : 45,
                            "value" : 2.16763770450271,
                            "duration" : 30
                          }
                        ]
                      }
                    },
                    "effects" : [
                        {
                          "effectName" : "DropShadow",
                          "parameters" : {
                            "angle" : 5.49778714378214,
                            "blur" : 10.0,
                            "color-alpha" : 1.0,
                            "color-blue" : 0.1216,
                            "color-green" : 0.1216,
                            "color-red" : 0.1216,
                            "enabled" : 1,
                            "offset" : 10.0,
                            "opacity" : 0.4
                          }
                        }
                    ],
                    "start" : 1649,
                    "duration" : 78,
                    "mediaStart" : 0,
                    "mediaDuration" : 78,
                    "scalar" : 1,
                    "metadata" : {
                      "WinSubProjectDisplayName" : "",
                      "clipSpeedAttribute" : false,
                      "default-HAlign" : "center",
                      "default-VAlign" : "center",
                      "default-scale0" : 1.0,
                      "default-scale1" : 1.0,
                      "default-stroke-width" : 0.0,
                      "default-text-attributes" : null,
                      "default-translation0" : 0.0,
                      "default-translation1" : 0.0
                    },
                    "animationTracks" : {
                      "visual" : [
                        {
                          "range" : [ 45, 30]
                        }
                      ]
                    }
                  },
                  {
                    "id" : 90,
                    "_type" : "Callout",
                    "def" : {
                      "kind" : "remix",
                      "shape" : "text-arrow",
                      "style" : "urban",
                      "fill-color-blue" : 0.129411764705882,
                      "fill-color-green" : 0.741176470588235,
                      "fill-color-opacity" : 1.0,
                      "fill-color-red" : 0.956862745098039,
                      "height" : 100.588235294104,
                      "stroke-color-blue" : 1.0,
                      "stroke-color-green" : 1.0,
                      "stroke-color-opacity" : 1.0,
                      "stroke-color-red" : 1.0,
                      "stroke-width" : 0.0,
                      "tail-x" : -87.0588235293773,
                      "tail-y" : 4.70588235294792,
                      "width" : 258.235294117641,
                      "word-wrap" : 1.0,
                      "fill-style" : "solid",
                      "horizontal-alignment" : "center",
                      "stroke-style" : "solid",
                      "text" : "Let this represent our initial dataset with missing values",
                      "vertical-alignment" : "center",
                      "font" : {
                        "color-blue" : 1.0,
                        "color-green" : 1.0,
                        "color-red" : 1.0,
                        "size" : 70.0,
                        "tracking" : 0.0,
                        "name" : "Dosis",
                        "weight" : "Semi Bold"
                      },
                      "textAttributes" : {
                        "type" : "textAttributeList",
                        "keyframes" : [
                          {
                            "time" : 0,
                            "value" : [{"name":"strikethrough","rangeEnd":58,"rangeStart":0,"value":0,"valueType":"int"},{"name":"fontSize","rangeEnd":58,"rangeStart":0,"value":70,"valueType":"double"},{"name":"fontItalic","rangeEnd":58,"rangeStart":0,"value":0,"valueType":"int"},{"name":"fontName","rangeEnd":58,"rangeStart":0,"value":"Dosis","valueType":"string"},{"name":"underline","rangeEnd":58,"rangeStart":0,"value":0,"valueType":"int"},{"name":"fontWeight","rangeEnd":58,"rangeStart":0,"value":100,"valueType":"int"},{"name":"fgColor","rangeEnd":58,"rangeStart":0,"value":"(255,255,255,255)","valueType":"color"}],
                            "duration" : 0
                          }
                        ]
                      }
                    },
                    "attributes" : {
                      "autoRotateText" : true
                    },
                    "parameters" : {
                      "translation0" : -308.911764705869,
                      "translation1" : -24.5000000000509
                    },
                    "effects" : [
                        {
                          "effectName" : "DropShadow",
                          "parameters" : {
                            "angle" : 5.49778714378214,
                            "blur" : 10.0,
                            "color-alpha" : 1.0,
                            "color-blue" : 0.1216,
                            "color-green" : 0.1216,
                            "color-red" : 0.1216,
                            "enabled" : 1,
                            "offset" : 10.0,
                            "opacity" : 0.4
                          }
                        }
                    ],
                    "start" : 3565,
                    "duration" : 121,
                    "mediaStart" : 0,
                    "mediaDuration" : 121,
                    "scalar" : 1,
                    "metadata" : {
                      "WinSubProjectDisplayName" : "",
                      "clipSpeedAttribute" : false,
                      "default-HAlign" : "center",
                      "default-VAlign" : "center",
                      "default-text-attributes" : null,
                      "default-translation0" : 0.0,
                      "default-translation1" : 0.0
                    },
                    "animationTracks" : {

                    }
                  },
                  {
                    "id" : 91,
                    "_type" : "Callout",
                    "def" : {
                      "kind" : "remix",
                      "shape" : "arrow",
                      "style" : "abstract",
                      "stroke-color-blue" : 0.8,
                      "stroke-color-green" : 0.874509803921569,
                      "stroke-color-opacity" : 1.0,
                      "stroke-color-red" : 0.898039215686275,
                      "stroke-width" : 8.0,
                      "tail-x" : {
                        "type" : "double",
                        "defaultValue" : 0.999999999942464,
                        "interp" : "eioe"
                      },
                      "tail-y" : {
                        "type" : "double",
                        "defaultValue" : -126.000000000066,
                        "interp" : "eioe"
                      },
                      "horizontal-alignment" : "center",
                      "shape-anchor" : "arrow",
                      "shape-tail" : "arrow",
                      "stroke-style" : "solid",
                      "vertical-alignment" : "center",
                      "textAttributes" : {
                        "type" : "textAttributeList",
                        "keyframes" : [
                          {
                            "time" : 0,
                            "value" : null,
                            "duration" : 0
                          }
                        ]
                      }
                    },
                    "attributes" : {
                      "autoRotateText" : true
                    },
                    "parameters" : {
                      "translation0" : -362.99999999952,
                      "translation1" : 112.000000000167
                    },
                    "effects" : [
                        {
                          "effectName" : "DropShadow",
                          "parameters" : {
                            "angle" : 5.49778714378214,
                            "blur" : 10.0,
                            "color-alpha" : 1.0,
                            "color-blue" : 0.1216,
                            "color-green" : 0.1216,
                            "color-red" : 0.1216,
                            "enabled" : 1,
                            "offset" : 10.0,
                            "opacity" : 0.4
                          }
                        }
                    ],
                    "start" : 6787,
                    "duration" : 150,
                    "mediaStart" : 0,
                    "mediaDuration" : 150,
                    "scalar" : 1,
                    "metadata" : {
                      "WinSubProjectDisplayName" : "",
                      "clipSpeedAttribute" : false,
                      "default-translation0" : 0.0,
                      "default-translation1" : 0.0
                    },
                    "animationTracks" : {

                    }
                  }
                ]
              },
              {
                "trackIndex" : 2,
                "medias" : [
                  {
                    "id" : 92,
                    "_type" : "Callout",
                    "def" : {
                      "kind" : "remix",
                      "shape" : "arrow",
                      "style" : "basic",
                      "stroke-color-blue" : 0.56078431372549,
                      "stroke-color-green" : 0.686274509803922,
                      "stroke-color-opacity" : 1.0,
                      "stroke-color-red" : 0.0196078431372549,
                      "stroke-width" : 8.0,
                      "tail-x" : {
                        "type" : "double",
                        "defaultValue" : 153.67857142869,
                        "interp" : "eioe"
                      },
                      "tail-y" : {
                        "type" : "double",
                        "defaultValue" : -2.38571428568288,
                        "interp" : "eioe"
                      },
                      "horizontal-alignment" : "center",
                      "shape-anchor" : "none",
                      "shape-tail" : "arrow",
                      "stroke-style" : "solid",
                      "vertical-alignment" : "center",
                      "textAttributes" : {
                        "type" : "textAttributeList",
                        "keyframes" : [
                          {
                            "time" : 0,
                            "value" : null,
                            "duration" : 0
                          }
                        ]
                      }
                    },
                    "attributes" : {
                      "autoRotateText" : true
                    },
                    "parameters" : {
                      "translation0" : -399.678571428618,
                      "translation1" : 17.8928571428096
                    },
                    "effects" : [
                        {
                          "effectName" : "DropShadow",
                          "parameters" : {
                            "angle" : 5.49778714378214,
                            "blur" : 10.0,
                            "color-alpha" : 1.0,
                            "color-blue" : 0.1216,
                            "color-green" : 0.1216,
                            "color-red" : 0.1216,
                            "enabled" : 1,
                            "offset" : 10.0,
                            "opacity" : 0.4
                          }
                        }
                    ],
                    "start" : 1479,
                    "duration" : 91,
                    "mediaStart" : 0,
                    "mediaDuration" : 91,
                    "scalar" : 1,
                    "metadata" : {
                      "WinSubProjectDisplayName" : "",
                      "clipSpeedAttribute" : false,
                      "default-translation0" : 0.0,
                      "default-translation1" : 0.0
                    },
                    "animationTracks" : {

                    }
                  },
                  {
                    "id" : 93,
                    "_type" : "Callout",
                    "def" : {
                      "kind" : "remix",
                      "shape" : "arrow",
                      "style" : "abstract",
                      "stroke-color-blue" : 0.8,
                      "stroke-color-green" : 0.874509803921569,
                      "stroke-color-opacity" : 1.0,
                      "stroke-color-red" : 0.898039215686275,
                      "stroke-width" : 8.0,
                      "tail-x" : {
                        "type" : "double",
                        "defaultValue" : 3.37010419571016e-11,
                        "interp" : "eioe"
                      },
                      "tail-y" : {
                        "type" : "double",
                        "defaultValue" : -123.588477366355,
                        "interp" : "eioe"
                      },
                      "horizontal-alignment" : "center",
                      "shape-anchor" : "arrow",
                      "shape-tail" : "arrow",
                      "stroke-style" : "solid",
                      "vertical-alignment" : "center",
                      "textAttributes" : {
                        "type" : "textAttributeList",
                        "keyframes" : [
                          {
                            "time" : 0,
                            "value" : null,
                            "duration" : 0
                          }
                        ]
                      }
                    },
                    "attributes" : {
                      "autoRotateText" : true
                    },
                    "parameters" : {
                      "translation0" : -361.999999999617,
                      "translation1" : -13.999999999818
                    },
                    "effects" : [
                        {
                          "effectName" : "DropShadow",
                          "parameters" : {
                            "angle" : 5.49778714378214,
                            "blur" : 10.0,
                            "color-alpha" : 1.0,
                            "color-blue" : 0.1216,
                            "color-green" : 0.1216,
                            "color-red" : 0.1216,
                            "enabled" : 1,
                            "offset" : 10.0,
                            "opacity" : 0.4
                          }
                        }
                    ],
                    "start" : 6787,
                    "duration" : 150,
                    "mediaStart" : 0,
                    "mediaDuration" : 150,
                    "scalar" : 1,
                    "metadata" : {
                      "WinSubProjectDisplayName" : "",
                      "clipSpeedAttribute" : false,
                      "default-translation0" : 0.0,
                      "default-translation1" : 0.0
                    },
                    "animationTracks" : {

                    }
                  }
                ]
              },
              {
                "trackIndex" : 3,
                "medias" : [
                  {
                    "id" : 94,
                    "_type" : "Callout",
                    "def" : {
                      "kind" : "remix",
                      "shape" : "arrow",
                      "style" : "basic",
                      "stroke-color-blue" : 0.56078431372549,
                      "stroke-color-green" : 0.686274509803922,
                      "stroke-color-opacity" : 1.0,
                      "stroke-color-red" : 0.0196078431372549,
                      "stroke-width" : 8.0,
                      "tail-x" : {
                        "type" : "double",
                        "defaultValue" : 153.678571428641,
                        "interp" : "eioe"
                      },
                      "tail-y" : {
                        "type" : "double",
                        "defaultValue" : 25.0500000000084,
                        "interp" : "eioe"
                      },
                      "horizontal-alignment" : "center",
                      "shape-anchor" : "none",
                      "shape-tail" : "arrow",
                      "stroke-style" : "solid",
                      "vertical-alignment" : "center",
                      "textAttributes" : {
                        "type" : "textAttributeList",
                        "keyframes" : [
                          {
                            "time" : 0,
                            "value" : null,
                            "duration" : 0
                          }
                        ]
                      }
                    },
                    "attributes" : {
                      "autoRotateText" : true
                    },
                    "parameters" : {
                      "translation0" : -399.678571428568,
                      "translation1" : -38.1714285714623
                    },
                    "effects" : [
                        {
                          "effectName" : "DropShadow",
                          "parameters" : {
                            "angle" : 5.49778714378214,
                            "blur" : 10.0,
                            "color-alpha" : 1.0,
                            "color-blue" : 0.1216,
                            "color-green" : 0.1216,
                            "color-red" : 0.1216,
                            "enabled" : 1,
                            "offset" : 10.0,
                            "opacity" : 0.4
                          }
                        }
                    ],
                    "start" : 1479,
                    "duration" : 91,
                    "mediaStart" : 0,
                    "mediaDuration" : 91,
                    "scalar" : 1,
                    "metadata" : {
                      "WinSubProjectDisplayName" : "",
                      "clipSpeedAttribute" : false,
                      "default-translation0" : 0.0,
                      "default-translation1" : 0.0
                    },
                    "animationTracks" : {

                    }
                  },
                  {
                    "id" : 95,
                    "_type" : "Callout",
                    "def" : {
                      "kind" : "remix",
                      "shape" : "text-rectangle",
                      "style" : "basic",
                      "fill-color-blue" : 1.0,
                      "fill-color-green" : 1.0,
                      "fill-color-opacity" : 1.0,
                      "fill-color-red" : 1.0,
                      "height" : 98.9999999999999,
                      "stroke-color-blue" : 0.0235294117647059,
                      "stroke-color-green" : 0.0,
                      "stroke-color-opacity" : 1.0,
                      "stroke-color-red" : 1.0,
                      "stroke-width" : 4.99999999999992,
                      "tail-x" : 26.9999999999414,
                      "tail-y" : -15.5000000001532,
                      "width" : 129.999999999801,
                      "word-wrap" : 1.0,
                      "fill-style" : "solid",
                      "horizontal-alignment" : "center",
                      "stroke-style" : "solid",
                      "text" : "Synthetic Data",
                      "vertical-alignment" : "center",
                      "font" : {
                        "color-blue" : 0.266666666666667,
                        "color-green" : 0.231372549019608,
                        "color-opacity" : 1.0,
                        "color-red" : 0.184313725490196,
                        "size" : 64.0,
                        "tracking" : 0.0,
                        "name" : "Montserrat",
                        "weight" : "Regular"
                      },
                      "textAttributes" : {
                        "type" : "textAttributeList",
                        "keyframes" : [
                          {
                            "time" : 0,
                            "value" : [{"name":"fgColor","rangeEnd":14,"rangeStart":0,"value":"(47,59,68,255)","valueType":"color"},{"name":"strikethrough","rangeEnd":14,"rangeStart":0,"value":0,"valueType":"int"},{"name":"fontItalic","rangeEnd":14,"rangeStart":0,"value":0,"valueType":"int"},{"name":"fontSize","rangeEnd":14,"rangeStart":0,"value":27,"valueType":"double"},{"name":"underline","rangeEnd":14,"rangeStart":0,"value":0,"valueType":"int"},{"name":"fontName","rangeEnd":14,"rangeStart":0,"value":"Montserrat","valueType":"string"},{"name":"fontWeight","rangeEnd":14,"rangeStart":0,"value":100,"valueType":"int"}],
                            "duration" : 0
                          }
                        ]
                      }
                    },
                    "attributes" : {
                      "autoRotateText" : true
                    },
                    "parameters" : {
                      "translation0" : -465.999999999462,
                      "translation1" : -76.4999999998812
                    },
                    "effects" : [
                        {
                          "effectName" : "DropShadow",
                          "parameters" : {
                            "angle" : 5.49778714378214,
                            "blur" : 10.0,
                            "color-alpha" : 1.0,
                            "color-blue" : 0.1216,
                            "color-green" : 0.1216,
                            "color-red" : 0.1216,
                            "enabled" : 1,
                            "offset" : 10.0,
                            "opacity" : 0.4
                          }
                        }
                    ],
                    "start" : 6787,
                    "duration" : 150,
                    "mediaStart" : 0,
                    "mediaDuration" : 150,
                    "scalar" : 1,
                    "metadata" : {
                      "WinSubProjectDisplayName" : "",
                      "clipSpeedAttribute" : false,
                      "default-HAlign" : "center",
                      "default-VAlign" : "center",
                      "default-rotation2" : 0.0,
                      "default-stroke-color-blue" : 0.56078431372549,
                      "default-stroke-color-green" : 0.686274509803922,
                      "default-stroke-color-red" : 0.0196078431372549,
                      "default-stroke-width" : 2.0,
                      "default-text-attributes" : null,
                      "default-translation0" : 0.0,
                      "default-translation1" : 0.0
                    },
                    "animationTracks" : {

                    }
                  }
                ]
              },
              {
                "trackIndex" : 4,
                "medias" : [
                  {
                    "id" : 96,
                    "_type" : "Callout",
                    "def" : {
                      "kind" : "remix",
                      "shape" : "speech-bubble2",
                      "style" : "basic",
                      "fill-color-blue" : 0.258823529411765,
                      "fill-color-green" : 0.258823529411765,
                      "fill-color-opacity" : 1.0,
                      "fill-color-red" : 0.988235294117647,
                      "height" : 180.0,
                      "stroke-color-blue" : 1.0,
                      "stroke-color-green" : 1.0,
                      "stroke-color-opacity" : 1.0,
                      "stroke-color-red" : 1.0,
                      "stroke-width" : 0.0,
                      "tail-x" : -447.121428571537,
                      "tail-y" : -257.257142857194,
                      "width" : 350.0,
                      "word-wrap" : 1.0,
                      "fill-style" : "solid",
                      "horizontal-alignment" : "center",
                      "stroke-style" : "solid",
                      "text" : "Looks NaN, but they are just not winners",
                      "vertical-alignment" : "center",
                      "font" : {
                        "color-blue" : 1.0,
                        "color-green" : 1.0,
                        "color-red" : 1.0,
                        "size" : 64.0,
                        "tracking" : 0.0,
                        "name" : "Montserrat",
                        "weight" : "Regular"
                      },
                      "textAttributes" : {
                        "type" : "textAttributeList",
                        "keyframes" : [
                          {
                            "time" : 0,
                            "value" : [{"name":"underline","rangeEnd":40,"rangeStart":0,"value":0,"valueType":"int"},{"name":"fontItalic","rangeEnd":40,"rangeStart":0,"value":0,"valueType":"int"},{"name":"fontSize","rangeEnd":40,"rangeStart":0,"value":64,"valueType":"double"},{"name":"strikethrough","rangeEnd":40,"rangeStart":0,"value":0,"valueType":"int"},{"name":"fgColor","rangeEnd":40,"rangeStart":0,"value":"(255,255,255,255)","valueType":"color"},{"name":"fontName","rangeEnd":40,"rangeStart":0,"value":"Montserrat","valueType":"string"},{"name":"fontWeight","rangeEnd":40,"rangeStart":0,"value":100,"valueType":"int"}],
                            "duration" : 0
                          }
                        ]
                      }
                    },
                    "attributes" : {
                      "autoRotateText" : true
                    },
                    "parameters" : {
                      "translation0" : 421.000000000084,
                      "translation1" : 33.4000000000138
                    },
                    "effects" : [
                        {
                          "effectName" : "DropShadow",
                          "parameters" : {
                            "angle" : 5.49778714378214,
                            "blur" : 10.0,
                            "color-alpha" : 1.0,
                            "color-blue" : 0.1216,
                            "color-green" : 0.1216,
                            "color-red" : 0.1216,
                            "enabled" : 1,
                            "offset" : 10.0,
                            "opacity" : 0.4
                          }
                        }
                    ],
                    "start" : 1550,
                    "duration" : 85,
                    "mediaStart" : 65,
                    "mediaDuration" : 85,
                    "scalar" : 1,
                    "metadata" : {
                      "WinSubProjectDisplayName" : "",
                      "clipSpeedAttribute" : false,
                      "default-HAlign" : "center",
                      "default-VAlign" : "center",
                      "default-text-attributes" : null,
                      "default-translation0" : 0.0,
                      "default-translation1" : 0.0
                    },
                    "animationTracks" : {

                    }
                  },
                  {
                    "id" : 97,
                    "_type" : "Callout",
                    "def" : {
                      "kind" : "remix",
                      "shape" : "text-rectangle",
                      "style" : "basic",
                      "fill-color-blue" : {
                        "type" : "double",
                        "defaultValue" : 1.0,
                        "interp" : "linr"
                      },
                      "fill-color-green" : {
                        "type" : "double",
                        "defaultValue" : 1.0,
                        "interp" : "linr"
                      },
                      "fill-color-opacity" : {
                        "type" : "double",
                        "defaultValue" : 1.0,
                        "interp" : "linr"
                      },
                      "fill-color-red" : {
                        "type" : "double",
                        "defaultValue" : 1.0,
                        "interp" : "linr"
                      },
                      "height" : {
                        "type" : "double",
                        "defaultValue" : 98.9999999999999,
                        "interp" : "linr"
                      },
                      "stroke-color-blue" : {
                        "type" : "double",
                        "defaultValue" : 0.0235294117647059,
                        "interp" : "linr"
                      },
                      "stroke-color-green" : {
                        "type" : "double",
                        "defaultValue" : 0.0,
                        "interp" : "linr"
                      },
                      "stroke-color-opacity" : {
                        "type" : "double",
                        "defaultValue" : 1.0,
                        "interp" : "linr"
                      },
                      "stroke-color-red" : {
                        "type" : "double",
                        "defaultValue" : 1.0,
                        "interp" : "linr"
                      },
                      "stroke-width" : {
                        "type" : "double",
                        "defaultValue" : 4.99999999999992,
                        "interp" : "linr"
                      },
                      "tail-x" : {
                        "type" : "double",
                        "defaultValue" : 26.9999999999414,
                        "interp" : "linr"
                      },
                      "tail-y" : {
                        "type" : "double",
                        "defaultValue" : -15.5000000001532,
                        "interp" : "linr"
                      },
                      "width" : {
                        "type" : "double",
                        "defaultValue" : 129.999999999801,
                        "interp" : "linr"
                      },
                      "word-wrap" : {
                        "type" : "double",
                        "defaultValue" : 1.0,
                        "interp" : "linr"
                      },
                      "fill-style" : "solid",
                      "horizontal-alignment" : "center",
                      "stroke-style" : "solid",
                      "text" : "Real/True Data",
                      "vertical-alignment" : "center",
                      "font" : {
                        "color-blue" : {
                          "type" : "double",
                          "defaultValue" : 0.266666666666667,
                          "interp" : "linr"
                        },
                        "color-green" : {
                          "type" : "double",
                          "defaultValue" : 0.231372549019608,
                          "interp" : "linr"
                        },
                        "color-opacity" : {
                          "type" : "double",
                          "defaultValue" : 1.0,
                          "interp" : "linr"
                        },
                        "color-red" : {
                          "type" : "double",
                          "defaultValue" : 0.184313725490196,
                          "interp" : "linr"
                        },
                        "size" : {
                          "type" : "double",
                          "defaultValue" : 64.0,
                          "interp" : "linr"
                        },
                        "tracking" : {
                          "type" : "double",
                          "defaultValue" : 0.0,
                          "interp" : "linr"
                        },
                        "name" : "Montserrat",
                        "weight" : "Regular"
                      },
                      "textAttributes" : {
                        "type" : "textAttributeList",
                        "keyframes" : [
                          {
                            "time" : 0,
                            "value" : [{"name":"underline","rangeEnd":14,"rangeStart":0,"value":0,"valueType":"int"},{"name":"fontItalic","rangeEnd":14,"rangeStart":0,"value":0,"valueType":"int"},{"name":"strikethrough","rangeEnd":14,"rangeStart":0,"value":0,"valueType":"int"},{"name":"fontName","rangeEnd":14,"rangeStart":0,"value":"Montserrat","valueType":"string"},{"name":"fontSize","rangeEnd":14,"rangeStart":0,"value":27,"valueType":"double"},{"name":"fgColor","rangeEnd":14,"rangeStart":0,"value":"(47,59,68,255)","valueType":"color"},{"name":"fontWeight","rangeEnd":14,"rangeStart":0,"value":100,"valueType":"int"}],
                            "duration" : 0
                          }
                        ]
                      }
                    },
                    "attributes" : {
                      "autoRotateText" : true
                    },
                    "parameters" : {
                      "translation0" : {
                        "type" : "double",
                        "defaultValue" : -465.999999999462,
                        "interp" : "eioe"
                      },
                      "translation1" : {
                        "type" : "double",
                        "defaultValue" : 49.5000000000326,
                        "interp" : "eioe"
                      }
                    },
                    "effects" : [
                        {
                          "effectName" : "DropShadow",
                          "parameters" : {
                            "angle" : {
                              "type" : "double",
                              "defaultValue" : 5.49778714378214,
                              "interp" : "linr",
                              "uiHints" : {
                                "userInterfaceType" : 0,
                                "unitType" : 0
                              }
                            },
                            "blur" : {
                              "type" : "double",
                              "defaultValue" : 10.0,
                              "interp" : "linr",
                              "uiHints" : {
                                "userInterfaceType" : 0,
                                "unitType" : 0
                              }
                            },
                            "color-alpha" : {
                              "type" : "double",
                              "defaultValue" : 1.0,
                              "interp" : "linr",
                              "uiHints" : {
                                "userInterfaceType" : 0,
                                "unitType" : 0
                              }
                            },
                            "color-blue" : {
                              "type" : "double",
                              "defaultValue" : 0.1216,
                              "interp" : "linr",
                              "uiHints" : {
                                "userInterfaceType" : 0,
                                "unitType" : 0
                              }
                            },
                            "color-green" : {
                              "type" : "double",
                              "defaultValue" : 0.1216,
                              "interp" : "linr",
                              "uiHints" : {
                                "userInterfaceType" : 0,
                                "unitType" : 0
                              }
                            },
                            "color-red" : {
                              "type" : "double",
                              "defaultValue" : 0.1216,
                              "interp" : "linr",
                              "uiHints" : {
                                "userInterfaceType" : 0,
                                "unitType" : 0
                              }
                            },
                            "enabled" : 1,
                            "offset" : {
                              "type" : "double",
                              "defaultValue" : 10.0,
                              "interp" : "linr",
                              "uiHints" : {
                                "userInterfaceType" : 0,
                                "unitType" : 0
                              }
                            },
                            "opacity" : {
                              "type" : "double",
                              "defaultValue" : 0.4,
                              "interp" : "linr",
                              "uiHints" : {
                                "userInterfaceType" : 0,
                                "unitType" : 0
                              }
                            }
                          }
                        }
                    ],
                    "start" : 6787,
                    "duration" : 150,
                    "mediaStart" : 0,
                    "mediaDuration" : 150,
                    "scalar" : 1,
                    "metadata" : {
                      "WinSubProjectDisplayName" : "",
                      "clipSpeedAttribute" : false,
                      "default-HAlign" : "center",
                      "default-VAlign" : "center",
                      "default-rotation2" : 0.0,
                      "default-stroke-color-blue" : 0.56078431372549,
                      "default-stroke-color-green" : 0.686274509803922,
                      "default-stroke-color-red" : 0.0196078431372549,
                      "default-stroke-width" : 2.0,
                      "default-text-attributes" : null,
                      "default-translation0" : 0.0,
                      "default-translation1" : 0.0
                    },
                    "animationTracks" : {

                    }
                  }
                ]
              },
              {
                "trackIndex" : 5,
                "medias" : [
                  {
                    "id" : 98,
                    "_type" : "Callout",
                    "def" : {
                      "kind" : "remix",
                      "shape" : "text-rectangle",
                      "style" : "abstract",
                      "fill-color-blue" : 0.8,
                      "fill-color-green" : 0.874509803921569,
                      "fill-color-opacity" : 1.0,
                      "fill-color-red" : 0.898039215686275,
                      "height" : 147.107142857137,
                      "stroke-color-blue" : 1.0,
                      "stroke-color-green" : 1.0,
                      "stroke-color-opacity" : 1.0,
                      "stroke-color-red" : 1.0,
                      "stroke-width" : 0.0,
                      "tail-x" : 76.8392857144093,
                      "tail-y" : -21.4464285714314,
                      "width" : 196.321428571181,
                      "word-wrap" : 1.0,
                      "fill-style" : "solid",
                      "horizontal-alignment" : "center",
                      "stroke-style" : "solid",
                      "text" : "Initially contains NaNs",
                      "vertical-alignment" : "center",
                      "font" : {
                        "color-blue" : 0.266666666666667,
                        "color-green" : 0.231372549019608,
                        "color-opacity" : 1.0,
                        "color-red" : 0.184313725490196,
                        "size" : 64.0,
                        "tracking" : 0.0,
                        "name" : "Lato",
                        "weight" : "Regular"
                      },
                      "textAttributes" : {
                        "type" : "textAttributeList",
                        "keyframes" : [
                          {
                            "time" : 0,
                            "value" : [{"name":"fontWeight","rangeEnd":23,"rangeStart":0,"value":100,"valueType":"int"},{"name":"fontSize","rangeEnd":23,"rangeStart":0,"value":64,"valueType":"double"},{"name":"underline","rangeEnd":23,"rangeStart":0,"value":0,"valueType":"int"},{"name":"fgColor","rangeEnd":23,"rangeStart":0,"value":"(47,59,68,255)","valueType":"color"},{"name":"fontItalic","rangeEnd":23,"rangeStart":0,"value":0,"valueType":"int"},{"name":"fontName","rangeEnd":23,"rangeStart":0,"value":"Lato","valueType":"string"},{"name":"strikethrough","rangeEnd":23,"rangeStart":0,"value":0,"valueType":"int"}],
                            "duration" : 0
                          }
                        ]
                      }
                    },
                    "attributes" : {
                      "autoRotateText" : true
                    },
                    "parameters" : {
                      "translation0" : -497.499999999864,
                      "translation1" : 17.3999999999637
                    },
                    "effects" : [
                        {
                          "effectName" : "DropShadow",
                          "parameters" : {
                            "angle" : 5.49778714378214,
                            "blur" : 10.0,
                            "color-alpha" : 1.0,
                            "color-blue" : 0.1216,
                            "color-green" : 0.1216,
                            "color-red" : 0.1216,
                            "enabled" : 1,
                            "offset" : 10.0,
                            "opacity" : 0.4
                          }
                        }
                    ],
                    "start" : 1479,
                    "duration" : 91,
                    "mediaStart" : 0,
                    "mediaDuration" : 91,
                    "scalar" : 1,
                    "metadata" : {
                      "WinSubProjectDisplayName" : "",
                      "clipSpeedAttribute" : false,
                      "default-HAlign" : "center",
                      "default-VAlign" : "center",
                      "default-text-attributes" : null,
                      "default-translation0" : 0.0,
                      "default-translation1" : 0.0
                    },
                    "animationTracks" : {

                    }
                  }
                ]
              },
              {
                "trackIndex" : 6,
                "medias" : [
                  {
                    "id" : 99,
                    "_type" : "AMFile",
                    "src" : 37,
                    "trackNumber" : 0,
                    "attributes" : {
                      "ident" : "17. E-Girl Crush",
                      "sampleRate" : 44100,
                      "bitDepth" : 16,
                      "gain" : 1.0,
                      "mixToMono" : false
                    },
                      "channelNumber" : "0,1",
                    "parameters" : {
                      "volume" : 0.467032967032967
                    },
                    "effects" : [

                    ],
                    "start" : 0,
                    "duration" : 3809,
                    "mediaStart" : 0,
                    "mediaDuration" : 3809,
                    "scalar" : 1,
                    "metadata" : {
                      "WinSubProjectDisplayName" : "",
                      "clipSpeedAttribute" : false
                    },
                    "animationTracks" : {

                    }
                  }
                ]
              },
              {
                "trackIndex" : 7,
                "medias" : [
                  {
                    "id" : 100,
                    "_type" : "AMFile",
                    "src" : 38,
                    "trackNumber" : 0,
                    "attributes" : {
                      "ident" : "23. Cotton Candyland",
                      "sampleRate" : 44100,
                      "bitDepth" : 16,
                      "gain" : 1.0,
                      "mixToMono" : false
                    },
                      "channelNumber" : "0,1",
                    "parameters" : {
                      "volume" : 0.467032967032967
                    },
                    "effects" : [

                    ],
                    "start" : 3732,
                    "duration" : 3710,
                    "mediaStart" : 0,
                    "mediaDuration" : 3710,
                    "scalar" : 1,
                    "metadata" : {
                      "WinSubProjectDisplayName" : "",
                      "clipSpeedAttribute" : false
                    },
                    "animationTracks" : {

                    }
                  }
                ]
              },
              {
                "trackIndex" : 8,
                "medias" : [
                ]
              }
            ]
          }
        }
      ]
    },
    "trackAttributes" : [
      {
        "ident" : "",
        "audioMuted" : false,
        "videoHidden" : false,
        "metadata" : {
          "IsLocked" : "False",
          "WinTrackHeight" : "56"
        }
      },
      {
        "ident" : "",
        "audioMuted" : false,
        "videoHidden" : false,
        "metadata" : {
          "IsLocked" : "False",
          "WinTrackHeight" : "56"
        }
      },
      {
        "ident" : "",
        "audioMuted" : false,
        "videoHidden" : false,
        "metadata" : {
          "IsLocked" : "False",
          "WinTrackHeight" : "56"
        }
      },
      {
        "ident" : "",
        "audioMuted" : false,
        "videoHidden" : false,
        "metadata" : {
          "IsLocked" : "False",
          "WinTrackHeight" : "56"
        }
      },
      {
        "ident" : "",
        "audioMuted" : false,
        "videoHidden" : false,
        "metadata" : {
          "IsLocked" : "False",
          "WinTrackHeight" : "56"
        }
      },
      {
        "ident" : "",
        "audioMuted" : false,
        "videoHidden" : false,
        "metadata" : {
          "IsLocked" : "False",
          "WinTrackHeight" : "56"
        }
      },
      {
        "ident" : "",
        "audioMuted" : false,
        "videoHidden" : false,
        "metadata" : {
          "IsLocked" : "False",
          "WinTrackHeight" : "56"
        }
      },
      {
        "ident" : "",
        "audioMuted" : false,
        "videoHidden" : false,
        "metadata" : {
          "IsLocked" : "False",
          "WinTrackHeight" : "56"
        }
      },
      {
        "ident" : "",
        "audioMuted" : false,
        "videoHidden" : false,
        "metadata" : {
          "IsLocked" : "False",
          "WinTrackHeight" : "56"
        }
      }
    ],
    "captionAttributes" : {
      "enabled" : true,
      "fontName" : "Arial",
      "fontSize" : 39,
      "backgroundColor" : [ 0, 0, 0, 191],
      "foregroundColor" : [ 255, 255, 255, 255],
      "lang" : "en",
      "alignment" : 0,
      "defaultFontSize" : true,
      "opacity" : 0.5,
      "backgroundEnabled" : true,
      "backgroundOnlyAroundText" : true
    },
    "backgroundColor" : [ 0, 0, 0, 255]
  },
  "metadata" : {
    "AutoSaveFile" : "C:\\Users\\Tathagata\\AppData\\Local\\TechSmith\\Camtasia Studio\\9.0\\Auto-Saves\\Untitled Project1228ec0.autosave.tscproj",
    "CanvasZoom" : 60,
    "Date" : "2020-12-20 06:02:55 AM",
    "Fit" : 0,
    "IsAutoSave" : "0",
    "Language" : "ENU",
    "ProfileName" : "MP4 only (up to 720p)",
    "ProjectDimensionsChanged" : "1",
    "audioNarrationNotes" : "",
    "calloutStyle" : "All",
    "canvasDetached" : "False",
    "canvasPositionHeight" : "0",
    "canvasPositionLeft" : "0",
    "canvasPositionTop" : "0",
    "canvasPositionWidth" : "0"
  }
}
